<svg width="20" height="20" viewBox="0 0 20 20" fill="none" xmlns="http://www.w3.org/2000/svg">
<path d="M8.44043 7.49958V13.1187C8.44692 13.5296 8.6147 13.9215 8.90757 14.2098C9.20044 14.498 9.59491 14.6596 10.0059 14.6596C10.4168 14.6596 10.8113 14.498 11.1041 14.2098C11.397 13.9215 11.5648 13.5296 11.5713 13.1187L11.5764 5.75349C11.5806 5.40229 11.5151 5.05373 11.3837 4.72803C11.2522 4.40234 11.0574 4.10597 10.8106 3.85611C10.5638 3.60626 10.2698 3.40788 9.94569 3.27249C9.62161 3.1371 9.27388 3.06738 8.92266 3.06738C8.57143 3.06738 8.2237 3.1371 7.89962 3.27249C7.57554 3.40788 7.28155 3.60626 7.03471 3.85611C6.78787 4.10597 6.59308 4.40234 6.46163 4.72803C6.33018 5.05373 6.26468 5.40229 6.26895 5.75349V13.1683C6.26179 13.6628 6.35299 14.1537 6.53726 14.6126C6.72152 15.0714 6.99516 15.4891 7.34228 15.8413C7.68939 16.1935 8.10306 16.4731 8.55922 16.664C9.01537 16.8549 9.50493 16.9532 9.99941 16.9532C10.4939 16.9532 10.9835 16.8549 11.4396 16.664C11.8958 16.4731 12.3094 16.1935 12.6565 15.8413C13.0037 15.4891 13.2773 15.0714 13.4616 14.6126C13.6458 14.1537 13.737 13.6628 13.7299 13.1683V6.23942" stroke="#3A4DDD" stroke-width="1.33333" stroke-miterlimit="10" stroke-linecap="round"/>
</svg>
