<svg width="19" height="19" viewBox="0 0 19 19" fill="none" xmlns="http://www.w3.org/2000/svg">
<path d="M12.7574 16.3624C12.9778 16.1467 13.1016 15.8542 13.1016 15.5492C13.1016 15.2442 12.9778 14.9517 12.7574 14.736L6.93887 9.04227L12.7574 3.34855C12.9715 3.13162 13.09 2.84106 13.0873 2.53947C13.0846 2.23788 12.961 1.94938 12.7431 1.73612C12.5251 1.52285 12.2303 1.40188 11.9221 1.39926C11.6139 1.39664 11.317 1.51258 11.0953 1.72211L4.44572 8.22905C4.22536 8.44475 4.10156 8.73727 4.10156 9.04227C4.10156 9.34728 4.22536 9.6398 4.44572 9.8555L11.0953 16.3624C11.3157 16.5781 11.6147 16.6992 11.9264 16.6992C12.238 16.6992 12.537 16.5781 12.7574 16.3624Z" fill="#63697D"/>
</svg>
