<svg width="19" height="19" viewBox="0 0 19 19" fill="none" xmlns="http://www.w3.org/2000/svg">
<path d="M6.2426 16.3624C6.02223 16.1467 5.89844 15.8542 5.89844 15.5492C5.89844 15.2442 6.02223 14.9517 6.2426 14.736L12.0611 9.04227L6.2426 3.34855C6.02848 3.13162 5.91 2.84106 5.91267 2.53947C5.91535 2.23788 6.03897 1.94938 6.25692 1.73612C6.47485 1.52285 6.76968 1.40188 7.07788 1.39926C7.38608 1.39664 7.683 1.51258 7.9047 1.72211L14.5543 8.22905C14.7746 8.44475 14.8984 8.73727 14.8984 9.04227C14.8984 9.34728 14.7746 9.6398 14.5543 9.8555L7.9047 16.3624C7.68427 16.5781 7.38534 16.6992 7.07365 16.6992C6.76196 16.6992 6.46303 16.5781 6.2426 16.3624Z" fill="#63697D"/>
</svg>
