<svg width="18" height="23" viewBox="0 0 18 23" fill="none" xmlns="http://www.w3.org/2000/svg">
<path d="M4.5 8.01484V6.34341C4.5 3.78712 6.57228 1.71484 9.12857 1.71484V1.71484C11.6849 1.71484 13.7571 3.78712 13.7571 6.34341V8.01484" stroke="#3A4DDD" stroke-width="1.5" stroke-linecap="round" stroke-linejoin="round"/>
<rect x="0.75" y="8.37891" width="16.5" height="13.1571" rx="2.25" stroke="#3A4DDD" stroke-width="1.5"/>
<mask id="path-3-inside-1_4231_25580" fill="white">
<ellipse cx="5.553" cy="14.8557" rx="1.053" ry="1.053"/>
</mask>
<ellipse cx="5.553" cy="14.8557" rx="1.053" ry="1.053" fill="#3A4DDD"/>
<path d="M5.106 14.8557C5.106 14.6089 5.30613 14.4087 5.553 14.4087V17.4087C6.96298 17.4087 8.106 16.2657 8.106 14.8557H5.106ZM5.553 14.4087C5.79987 14.4087 6 14.6089 6 14.8557H3C3 16.2657 4.14302 17.4087 5.553 17.4087V14.4087ZM6 14.8557C6 15.1026 5.79987 15.3027 5.553 15.3027V12.3027C4.14302 12.3027 3 13.4458 3 14.8557H6ZM5.553 15.3027C5.30613 15.3027 5.106 15.1026 5.106 14.8557H8.106C8.106 13.4458 6.96298 12.3027 5.553 12.3027V15.3027Z" fill="#3A4DDD" mask="url(#path-3-inside-1_4231_25580)"/>
<mask id="path-5-inside-2_4231_25580" fill="white">
<ellipse cx="9.06277" cy="14.8557" rx="1.053" ry="1.053"/>
</mask>
<ellipse cx="9.06277" cy="14.8557" rx="1.053" ry="1.053" fill="#3A4DDD"/>
<path d="M8.61577 14.8557C8.61577 14.6089 8.81589 14.4087 9.06277 14.4087V17.4087C10.4727 17.4087 11.6158 16.2657 11.6158 14.8557H8.61577ZM9.06277 14.4087C9.30964 14.4087 9.50977 14.6089 9.50977 14.8557H6.50977C6.50977 16.2657 7.65278 17.4087 9.06277 17.4087V14.4087ZM9.50977 14.8557C9.50977 15.1026 9.30964 15.3027 9.06277 15.3027V12.3027C7.65278 12.3027 6.50977 13.4458 6.50977 14.8557H9.50977ZM9.06277 15.3027C8.81589 15.3027 8.61577 15.1026 8.61577 14.8557H11.6158C11.6158 13.4458 10.4727 12.3027 9.06277 12.3027V15.3027Z" fill="#3A4DDD" mask="url(#path-5-inside-2_4231_25580)"/>
<mask id="path-7-inside-3_4231_25580" fill="white">
<ellipse cx="12.5725" cy="14.8557" rx="1.053" ry="1.053"/>
</mask>
<ellipse cx="12.5725" cy="14.8557" rx="1.053" ry="1.053" fill="#3A4DDD"/>
<path d="M12.1255 14.8557C12.1255 14.6089 12.3257 14.4087 12.5725 14.4087V17.4087C13.9825 17.4087 15.1255 16.2657 15.1255 14.8557H12.1255ZM12.5725 14.4087C12.8194 14.4087 13.0195 14.6089 13.0195 14.8557H10.0195C10.0195 16.2657 11.1625 17.4087 12.5725 17.4087V14.4087ZM13.0195 14.8557C13.0195 15.1026 12.8194 15.3027 12.5725 15.3027V12.3027C11.1625 12.3027 10.0195 13.4458 10.0195 14.8557H13.0195ZM12.5725 15.3027C12.3257 15.3027 12.1255 15.1026 12.1255 14.8557H15.1255C15.1255 13.4458 13.9825 12.3027 12.5725 12.3027V15.3027Z" fill="#3A4DDD" mask="url(#path-7-inside-3_4231_25580)"/>
</svg>
