<svg width="22" height="22" viewBox="0 0 22 22" fill="none" xmlns="http://www.w3.org/2000/svg">
<path d="M6.5 7.51256V6.62857C6.5 4.07228 8.57228 2 11.1286 2V2C13.6849 2 15.7571 4.07228 15.7571 6.62857V7.51256" stroke="#63697D" stroke-width="1.5" stroke-linecap="round" stroke-linejoin="round"/>
<rect x="2.75" y="7.92188" width="16.5" height="11.3251" rx="2.25" stroke="#63697D" stroke-width="1.5"/>
<mask id="path-3-inside-1_3185_25725" fill="white">
<ellipse cx="7.553" cy="13.4917" rx="1.053" ry="0.921385"/>
</mask>
<ellipse cx="7.553" cy="13.4917" rx="1.053" ry="0.921385" fill="#63697D"/>
<path d="M7.106 13.4917C7.106 13.2617 7.21607 13.0964 7.30982 13.0144C7.40061 12.9349 7.49109 12.9131 7.553 12.9131V15.9131C8.76859 15.9131 10.106 15.0109 10.106 13.4917H7.106ZM7.553 12.9131C7.61491 12.9131 7.70539 12.9349 7.79618 13.0144C7.88993 13.0964 8 13.2617 8 13.4917H5C5 15.0109 6.33741 15.9131 7.553 15.9131V12.9131ZM8 13.4917C8 13.7217 7.88993 13.887 7.79618 13.969C7.70539 14.0485 7.61491 14.0703 7.553 14.0703V11.0703C6.33741 11.0703 5 11.9725 5 13.4917H8ZM7.553 14.0703C7.49109 14.0703 7.40061 14.0485 7.30982 13.969C7.21607 13.887 7.106 13.7217 7.106 13.4917H10.106C10.106 11.9725 8.76859 11.0703 7.553 11.0703V14.0703Z" fill="#63697D" mask="url(#path-3-inside-1_3185_25725)"/>
<mask id="path-5-inside-2_3185_25725" fill="white">
<ellipse cx="11.0628" cy="13.4917" rx="1.053" ry="0.921385"/>
</mask>
<ellipse cx="11.0628" cy="13.4917" rx="1.053" ry="0.921385" fill="#63697D"/>
<path d="M10.6158 13.4917C10.6158 13.2617 10.7258 13.0964 10.8196 13.0144C10.9104 12.9349 11.0009 12.9131 11.0628 12.9131V15.9131C12.2784 15.9131 13.6158 15.0109 13.6158 13.4917H10.6158ZM11.0628 12.9131C11.1247 12.9131 11.2152 12.9349 11.3059 13.0144C11.3997 13.0964 11.5098 13.2617 11.5098 13.4917H8.50977C8.50977 15.0109 9.84718 15.9131 11.0628 15.9131V12.9131ZM11.5098 13.4917C11.5098 13.7217 11.3997 13.887 11.3059 13.969C11.2152 14.0485 11.1247 14.0703 11.0628 14.0703V11.0703C9.84718 11.0703 8.50977 11.9725 8.50977 13.4917H11.5098ZM11.0628 14.0703C11.0009 14.0703 10.9104 14.0485 10.8196 13.969C10.7258 13.887 10.6158 13.7217 10.6158 13.4917H13.6158C13.6158 11.9725 12.2784 11.0703 11.0628 11.0703V14.0703Z" fill="#63697D" mask="url(#path-5-inside-2_3185_25725)"/>
<mask id="path-7-inside-3_3185_25725" fill="white">
<ellipse cx="14.5725" cy="13.4917" rx="1.053" ry="0.921385"/>
</mask>
<ellipse cx="14.5725" cy="13.4917" rx="1.053" ry="0.921385" fill="#63697D"/>
<path d="M14.1255 13.4917C14.1255 13.2617 14.2356 13.0964 14.3294 13.0144C14.4201 12.9349 14.5106 12.9131 14.5725 12.9131V15.9131C15.7881 15.9131 17.1255 15.0109 17.1255 13.4917H14.1255ZM14.5725 12.9131C14.6344 12.9131 14.7249 12.9349 14.8157 13.0144C14.9095 13.0964 15.0195 13.2617 15.0195 13.4917H12.0195C12.0195 15.0109 13.3569 15.9131 14.5725 15.9131V12.9131ZM15.0195 13.4917C15.0195 13.7217 14.9095 13.887 14.8157 13.969C14.7249 14.0485 14.6344 14.0703 14.5725 14.0703V11.0703C13.3569 11.0703 12.0195 11.9725 12.0195 13.4917H15.0195ZM14.5725 14.0703C14.5106 14.0703 14.4201 14.0485 14.3294 13.969C14.2356 13.887 14.1255 13.7217 14.1255 13.4917H17.1255C17.1255 11.9725 15.7881 11.0703 14.5725 11.0703V14.0703Z" fill="#63697D" mask="url(#path-7-inside-3_3185_25725)"/>
</svg>
