<svg width="18" height="18" viewBox="0 0 18 18" fill="none" xmlns="http://www.w3.org/2000/svg">
<path d="M0 9C0 11.3869 0.948212 13.6761 2.63604 15.364C4.32387 17.0518 6.61305 18 9 18C11.3869 18 13.6761 17.0518 15.364 15.364C17.0518 13.6761 18 11.3869 18 9C18 6.61305 17.0518 4.32387 15.364 2.63604C13.6761 0.948212 11.3869 0 9 0C6.61305 0 4.32387 0.948212 2.63604 2.63604C0.948212 4.32387 0 6.61305 0 9ZM9 3.9375C9 3.78832 9.05926 3.64524 9.16475 3.53975C9.27024 3.43426 9.41332 3.375 9.5625 3.375C9.71168 3.375 9.85476 3.43426 9.96025 3.53975C10.0657 3.64524 10.125 3.78832 10.125 3.9375V10.125C10.125 10.2241 10.0987 10.3215 10.0489 10.4073C9.99916 10.493 9.92759 10.5641 9.8415 10.6132L5.904 12.8632C5.77479 12.9331 5.62338 12.9496 5.48214 12.9093C5.34091 12.869 5.22104 12.775 5.14817 12.6475C5.0753 12.5199 5.0552 12.369 5.09216 12.2268C5.12913 12.0847 5.22023 11.9626 5.346 11.8868L9 9.79875V3.9375Z" fill="#3A4DDD"/>
</svg>
