<svg width="18" height="18" viewBox="0 0 18 18" fill="none" xmlns="http://www.w3.org/2000/svg">
<path d="M2.75959 3.42618C2.22299 3.42618 1.788 3.86118 1.788 4.39777V12.1705C1.788 12.7071 2.22299 13.1421 2.75959 13.1421H12.0731C12.5884 13.1421 13.0827 13.3468 13.4471 13.7112L15.3903 15.6544V4.39777C15.3903 3.86118 14.9553 3.42618 14.4187 3.42618H2.75959ZM14.4187 2.45459C15.4919 2.45459 16.3619 3.32458 16.3619 4.39777V16.8272C16.3619 17.26 15.8386 17.4768 15.5326 17.1707L12.7601 14.3983C12.5779 14.216 12.3307 14.1137 12.0731 14.1137H2.75959C1.6864 14.1137 0.816406 13.2437 0.816406 12.1705V4.39777C0.816406 3.32458 1.6864 2.45459 2.75959 2.45459H14.4187Z" fill="#3A4DDD"/>
<path d="M3.73118 5.85516C3.73118 5.58686 3.94868 5.36936 4.21697 5.36936H12.9613C13.2296 5.36936 13.4471 5.58686 13.4471 5.85516C13.4471 6.12345 13.2296 6.34095 12.9613 6.34095H4.21697C3.94868 6.34095 3.73118 6.12345 3.73118 5.85516ZM3.73118 8.28413C3.73118 8.01584 3.94868 7.79834 4.21697 7.79834H12.9613C13.2296 7.79834 13.4471 8.01584 13.4471 8.28413C13.4471 8.55243 13.2296 8.76993 12.9613 8.76993H4.21697C3.94868 8.76993 3.73118 8.55243 3.73118 8.28413ZM3.73118 10.7131C3.73118 10.4448 3.94868 10.2273 4.21697 10.2273H9.07493C9.34323 10.2273 9.56073 10.4448 9.56073 10.7131C9.56073 10.9814 9.34323 11.1989 9.07493 11.1989H4.21697C3.94868 11.1989 3.73118 10.9814 3.73118 10.7131Z" fill="#3A4DDD"/>
</svg>
