<svg width="22" height="22" viewBox="0 0 22 22" fill="none" xmlns="http://www.w3.org/2000/svg">
<path d="M3.375 4.1875C2.71916 4.1875 2.1875 4.71916 2.1875 5.375V14.875C2.1875 15.5308 2.71916 16.0625 3.375 16.0625H14.7581C15.388 16.0625 15.9921 16.3127 16.4375 16.7581L18.8125 19.1331V5.375C18.8125 4.71916 18.2808 4.1875 17.625 4.1875H3.375ZM17.625 3C18.9367 3 20 4.06332 20 5.375V20.5666C20 21.0955 19.3604 21.3604 18.9864 20.9864L15.5978 17.5978C15.3751 17.3751 15.0731 17.25 14.7581 17.25H3.375C2.06332 17.25 1 16.1867 1 14.875V5.375C1 4.06332 2.06332 3 3.375 3H17.625Z" fill="#63697D"/>
<path d="M4.5625 7.15625C4.5625 6.82833 4.82833 6.5625 5.15625 6.5625H15.8438C16.1717 6.5625 16.4375 6.82833 16.4375 7.15625C16.4375 7.48417 16.1717 7.75 15.8438 7.75H5.15625C4.82833 7.75 4.5625 7.48417 4.5625 7.15625ZM4.5625 10.125C4.5625 9.79708 4.82833 9.53125 5.15625 9.53125H15.8438C16.1717 9.53125 16.4375 9.79708 16.4375 10.125C16.4375 10.4529 16.1717 10.7187 15.8438 10.7187H5.15625C4.82833 10.7187 4.5625 10.4529 4.5625 10.125ZM4.5625 13.0937C4.5625 12.7658 4.82833 12.5 5.15625 12.5H11.0938C11.4217 12.5 11.6875 12.7658 11.6875 13.0937C11.6875 13.4217 11.4217 13.6875 11.0938 13.6875H5.15625C4.82833 13.6875 4.5625 13.4217 4.5625 13.0937Z" fill="#63697D"/>
</svg>
