<svg width="22" height="22" viewBox="0 0 22 22" fill="none" xmlns="http://www.w3.org/2000/svg">
<path d="M7.625 10.75C8.86764 10.75 9.875 9.74264 9.875 8.5C9.875 7.25736 8.86764 6.25 7.625 6.25C6.38236 6.25 5.375 7.25736 5.375 8.5C5.375 9.74264 6.38236 10.75 7.625 10.75Z" fill="#63697D"/>
<path d="M12.125 7.9375C12.125 7.62684 12.3768 7.375 12.6875 7.375H17.1875C17.4982 7.375 17.75 7.62684 17.75 7.9375C17.75 8.24816 17.4982 8.5 17.1875 8.5H12.6875C12.3768 8.5 12.125 8.24816 12.125 7.9375Z" fill="#63697D"/>
<path d="M12.125 10.75C12.125 10.4393 12.3768 10.1875 12.6875 10.1875H17.1875C17.4982 10.1875 17.75 10.4393 17.75 10.75C17.75 11.0607 17.4982 11.3125 17.1875 11.3125H12.6875C12.3768 11.3125 12.125 11.0607 12.125 10.75Z" fill="#63697D"/>
<path d="M13.25 13.5625C13.25 13.2518 13.5018 13 13.8125 13H17.1875C17.4982 13 17.75 13.2518 17.75 13.5625C17.75 13.8732 17.4982 14.125 17.1875 14.125H13.8125C13.5018 14.125 13.25 13.8732 13.25 13.5625Z" fill="#63697D"/>
<path d="M4.25 4C3.00736 4 2 5.00736 2 6.25V15.25C2 16.4926 3.00736 17.5 4.25 17.5H17.75C18.9926 17.5 20 16.4926 20 15.25V6.25C20 5.00736 18.9926 4 17.75 4H4.25ZM3.125 6.25C3.125 5.62868 3.62868 5.125 4.25 5.125H17.75C18.3713 5.125 18.875 5.62868 18.875 6.25V15.25C18.875 15.8713 18.3713 16.375 17.75 16.375H12.0794C12.1095 16.1913 12.125 16.0035 12.125 15.8125C12.125 13.6379 10.1103 11.875 7.625 11.875C5.2779 11.875 3.35049 13.4473 3.14342 15.4538C3.13132 15.3877 3.125 15.3196 3.125 15.25V6.25Z" fill="#63697D"/>
</svg>
