<svg width="22" height="18" viewBox="0 0 22 18" fill="none" xmlns="http://www.w3.org/2000/svg">
<path d="M0.427768 2.7922L0.482335 3.99269C0.132945 4.50207 -0.049219 5.13247 0.0115553 5.80099L0.889418 15.4575C1.01861 16.8786 2.21012 17.9667 3.63708 17.9667H12.1535V16.5872H3.63708C2.9236 16.5872 2.32785 16.0431 2.26325 15.3326L1.38539 5.6761C1.31195 4.86824 1.94804 4.1717 2.75922 4.1717H18.7888C19.6 4.1717 20.2361 4.86824 20.1626 5.67609L19.7978 9.6897H21.183L21.5365 5.80099C21.6834 4.18527 20.4112 2.7922 18.7888 2.7922H13.2963C12.5646 2.7922 11.8628 2.50152 11.3454 1.98411L10.2026 0.841295C9.68519 0.323883 8.98343 0.0332031 8.2517 0.0332031H3.18677C1.66301 0.0332031 0.427768 1.26845 0.427768 2.7922ZM8.2517 1.4127C8.61756 1.4127 8.96844 1.55804 9.22715 1.81675L10.2026 2.7922H2.75922C2.42715 2.7922 2.10975 2.85056 1.81619 2.95725L1.80751 2.76616C1.82139 2.0163 2.43359 1.4127 3.18677 1.4127H8.2517Z" fill="#5968D4"/>
<path d="M18.3613 11.0692C18.7422 11.0692 19.051 11.378 19.051 11.7589V13.8282H21.1203C21.5012 13.8282 21.81 14.137 21.81 14.5179C21.81 14.8989 21.5012 15.2077 21.1203 15.2077H19.051V17.2769C19.051 17.6579 18.7422 17.9667 18.3613 17.9667C17.9803 17.9667 17.6715 17.6579 17.6715 17.2769V15.2077H15.6023C15.2213 15.2077 14.9125 14.8989 14.9125 14.5179C14.9125 14.137 15.2213 13.8282 15.6023 13.8282H17.6715V11.7589C17.6715 11.378 17.9803 11.0692 18.3613 11.0692Z" fill="#5968D4"/>
</svg>
