<svg width="16" height="16" viewBox="0 0 16 16" fill="none" xmlns="http://www.w3.org/2000/svg">
<path d="M5.65625 5.65625C5.91513 5.65625 6.125 5.86612 6.125 6.125V11.75C6.125 12.0089 5.91513 12.2188 5.65625 12.2188C5.39737 12.2188 5.1875 12.0089 5.1875 11.75V6.125C5.1875 5.86612 5.39737 5.65625 5.65625 5.65625Z" fill="#474F69"/>
<path d="M8 5.65625C8.25888 5.65625 8.46875 5.86612 8.46875 6.125V11.75C8.46875 12.0089 8.25888 12.2188 8 12.2188C7.74112 12.2188 7.53125 12.0089 7.53125 11.75V6.125C7.53125 5.86612 7.74112 5.65625 8 5.65625Z" fill="#474F69"/>
<path d="M10.8125 6.125C10.8125 5.86612 10.6026 5.65625 10.3438 5.65625C10.0849 5.65625 9.875 5.86612 9.875 6.125V11.75C9.875 12.0089 10.0849 12.2188 10.3438 12.2188C10.6026 12.2188 10.8125 12.0089 10.8125 11.75V6.125Z" fill="#474F69"/>
<path d="M14.0938 3.3125C14.0938 3.83027 13.674 4.25 13.1562 4.25H12.6875V12.6875C12.6875 13.723 11.848 14.5625 10.8125 14.5625H5.1875C4.15197 14.5625 3.3125 13.723 3.3125 12.6875V4.25H2.84375C2.32598 4.25 1.90625 3.83027 1.90625 3.3125V2.375C1.90625 1.85723 2.32598 1.4375 2.84375 1.4375H6.125C6.125 0.919733 6.54473 0.5 7.0625 0.5H8.9375C9.45527 0.5 9.875 0.919733 9.875 1.4375H13.1562C13.674 1.4375 14.0938 1.85723 14.0938 2.375V3.3125ZM4.36066 4.25L4.25 4.30533V12.6875C4.25 13.2053 4.66973 13.625 5.1875 13.625H10.8125C11.3303 13.625 11.75 13.2053 11.75 12.6875V4.30533L11.6393 4.25H4.36066ZM2.84375 3.3125H13.1562V2.375H2.84375V3.3125Z" fill="#474F69"/>
</svg>
