<svg width="20" height="20" viewBox="0 0 20 20" fill="none" xmlns="http://www.w3.org/2000/svg">
<path d="M0 5.62019C0 4.28367 1.08347 3.2002 2.42 3.2002H16.94C18.2765 3.2002 19.36 4.28367 19.36 5.6202V15.3002C19.36 16.6367 18.2765 17.7202 16.94 17.7202H2.42C1.08347 17.7202 0 16.6367 0 15.3002V5.62019ZM10.89 7.43519C10.89 7.76933 11.1609 8.04019 11.495 8.04019H16.335C16.6691 8.04019 16.94 7.76933 16.94 7.43519C16.94 7.10106 16.6691 6.83019 16.335 6.83019H11.495C11.1609 6.83019 10.89 7.10106 10.89 7.43519ZM10.89 10.4602C10.89 10.7943 11.1609 11.0652 11.495 11.0652H16.335C16.6691 11.0652 16.94 10.7943 16.94 10.4602C16.94 10.1261 16.6691 9.8552 16.335 9.8552H11.495C11.1609 9.8552 10.89 10.1261 10.89 10.4602ZM12.1 13.4852C12.1 13.8193 12.3709 14.0902 12.705 14.0902H16.335C16.6691 14.0902 16.94 13.8193 16.94 13.4852C16.94 13.1511 16.6691 12.8802 16.335 12.8802H12.705C12.3709 12.8802 12.1 13.1511 12.1 13.4852ZM10.89 15.9052C10.89 13.5663 8.72304 11.6702 6.04998 11.6702C3.52554 11.6702 1.45251 13.3613 1.22979 15.5194C1.33294 16.083 1.82658 16.5102 2.41998 16.5102H10.841C10.8733 16.3126 10.89 16.1106 10.89 15.9052ZM8.46998 8.04019C8.46998 6.70367 7.38651 5.6202 6.04998 5.6202C4.71345 5.6202 3.62998 6.70367 3.62998 8.04019C3.62998 9.37672 4.71345 10.4602 6.04998 10.4602C7.38651 10.4602 8.46998 9.37672 8.46998 8.04019Z" fill="#5968D4"/>
</svg>
