<svg width="22" height="18" viewBox="0 0 22 18" fill="none" xmlns="http://www.w3.org/2000/svg">
<path d="M6.875 9C8.39378 9 9.625 7.76878 9.625 6.25C9.625 4.73122 8.39378 3.5 6.875 3.5C5.35622 3.5 4.125 4.73122 4.125 6.25C4.125 7.76878 5.35622 9 6.875 9Z" fill="#5968D4"/>
<path d="M12.375 5.5625C12.375 5.1828 12.6828 4.875 13.0625 4.875H18.5625C18.9422 4.875 19.25 5.1828 19.25 5.5625C19.25 5.9422 18.9422 6.25 18.5625 6.25H13.0625C12.6828 6.25 12.375 5.9422 12.375 5.5625Z" fill="#5968D4"/>
<path d="M12.375 9C12.375 8.6203 12.6828 8.3125 13.0625 8.3125H18.5625C18.9422 8.3125 19.25 8.6203 19.25 9C19.25 9.3797 18.9422 9.6875 18.5625 9.6875H13.0625C12.6828 9.6875 12.375 9.3797 12.375 9Z" fill="#5968D4"/>
<path d="M13.75 12.4375C13.75 12.0578 14.0578 11.75 14.4375 11.75H18.5625C18.9422 11.75 19.25 12.0578 19.25 12.4375C19.25 12.8172 18.9422 13.125 18.5625 13.125H14.4375C14.0578 13.125 13.75 12.8172 13.75 12.4375Z" fill="#5968D4"/>
<path d="M2.75 0.75C1.23122 0.75 0 1.98122 0 3.5V14.5C0 16.0188 1.23122 17.25 2.75 17.25H19.25C20.7688 17.25 22 16.0188 22 14.5V3.5C22 1.98122 20.7688 0.75 19.25 0.75H2.75ZM1.375 3.5C1.375 2.74061 1.99061 2.125 2.75 2.125H19.25C20.0094 2.125 20.625 2.74061 20.625 3.5V14.5C20.625 15.2594 20.0094 15.875 19.25 15.875H12.3193C12.356 15.6505 12.375 15.4209 12.375 15.1875C12.375 12.5296 9.91257 10.375 6.875 10.375C4.00632 10.375 1.6506 12.2967 1.39751 14.7491C1.38272 14.6683 1.375 14.5851 1.375 14.5V3.5Z" fill="#5968D4"/>
</svg>
