<svg width="17" height="16" viewBox="0 0 17 16" fill="none" xmlns="http://www.w3.org/2000/svg">
<path d="M9.621 4.96967C9.91389 4.67678 10.3888 4.67678 10.6817 4.96967C10.971 5.25897 10.9745 5.72582 10.6923 6.01947L6.7001 11.0097C6.69434 11.0169 6.68818 11.0238 6.68166 11.0303C6.38877 11.3232 5.91389 11.3232 5.621 11.0303L2.97455 8.38388C2.68166 8.09099 2.68166 7.61612 2.97455 7.32322C3.26745 7.03033 3.74232 7.03033 4.03521 7.32322L6.12873 9.41674L9.60111 4.9921C9.60728 4.98424 9.61393 4.97674 9.621 4.96967Z" fill="#63697D"/>
<path d="M8.70058 10.1099L9.621 11.0303C9.91389 11.3232 10.3888 11.3232 10.6817 11.0303C10.6882 11.0238 10.6943 11.0169 10.7001 11.0097L14.6923 6.01947C14.9745 5.72582 14.971 5.25897 14.6817 4.96967C14.3888 4.67678 13.9139 4.67678 13.621 4.96967C13.6139 4.97674 13.6073 4.98424 13.6011 4.9921L10.1287 9.41674L9.64339 8.9314L8.70058 10.1099Z" fill="#63697D"/>
</svg>
