<svg width="16" height="16" viewBox="0 0 16 16" fill="none" xmlns="http://www.w3.org/2000/svg">
<path d="M11.8873 0.637294C12.0704 0.454235 12.3672 0.454235 12.5502 0.637294L15.3627 3.44979C15.5458 3.63285 15.5458 3.92965 15.3627 4.11271L5.98772 13.4877C5.94283 13.5326 5.88929 13.5679 5.83035 13.5915L1.14285 15.4665C0.968751 15.5361 0.769899 15.4953 0.637307 15.3627C0.504716 15.2301 0.4639 15.0313 0.53354 14.8572L2.40854 10.1697C2.43212 10.1107 2.46742 10.0572 2.51231 10.0123L11.8873 0.637294ZM11.0067 2.84375L13.1563 4.99334L14.3684 3.78125L12.2188 1.63166L11.0067 2.84375ZM12.4934 5.65625L10.3438 3.50666L4.25001 9.60041V9.875H4.71876C4.97765 9.875 5.18751 10.0849 5.18751 10.3438V10.8125H5.65626C5.91515 10.8125 6.12501 11.0224 6.12501 11.2812V11.75H6.3996L12.4934 5.65625ZM3.34219 10.5082L3.24325 10.6072L1.8102 14.1898L5.39284 12.7568L5.49177 12.6578C5.31403 12.5912 5.18751 12.4198 5.18751 12.2188V11.75H4.71876C4.45988 11.75 4.25001 11.5401 4.25001 11.2812V10.8125H3.78126C3.58026 10.8125 3.4088 10.686 3.34219 10.5082Z" fill="#474F69"/>
</svg>
