<svg width="22" height="22" viewBox="0 0 22 22" fill="none" xmlns="http://www.w3.org/2000/svg">
<path d="M10.9997 1.83398C16.0624 1.83398 20.1663 5.9379 20.1663 11.0007C20.1663 16.0634 16.0624 20.1673 10.9997 20.1673C5.93692 20.1673 1.83301 16.0634 1.83301 11.0007C1.83301 5.9379 5.93692 1.83398 10.9997 1.83398ZM10.9997 3.66732C9.05475 3.66732 7.18949 4.43993 5.81422 5.8152C4.43896 7.19047 3.66634 9.05573 3.66634 11.0007C3.66634 12.9456 4.43896 14.8108 5.81422 16.1861C7.18949 17.5614 9.05475 18.334 10.9997 18.334C12.9446 18.334 14.8099 17.5614 16.1851 16.1861C17.5604 14.8108 18.333 12.9456 18.333 11.0007C18.333 9.05573 17.5604 7.19047 16.1851 5.8152C14.8099 4.43993 12.9446 3.66732 10.9997 3.66732ZM13.5663 12.7029C13.6519 12.6166 13.7537 12.5482 13.8659 12.5016C13.9781 12.4551 14.0984 12.4312 14.2199 12.4316C14.3414 12.4319 14.4616 12.4564 14.5735 12.5036C14.6854 12.5508 14.7869 12.6198 14.8719 12.7065C14.957 12.7932 15.0239 12.896 15.0689 13.0089C15.1139 13.1217 15.136 13.2424 15.1339 13.3639C15.1318 13.4853 15.1056 13.6052 15.0568 13.7164C15.008 13.8277 14.9376 13.9281 14.8497 14.0119C13.8224 15.0209 12.4396 15.5856 10.9997 15.584C9.55974 15.5856 8.17692 15.0209 7.14967 14.0119C6.98012 13.8409 6.88469 13.6099 6.88403 13.3691C6.88336 13.1282 6.97751 12.8968 7.14612 12.7248C7.31473 12.5529 7.54426 12.4541 7.78507 12.45C8.02588 12.4459 8.25863 12.5368 8.43301 12.7029C9.11759 13.3759 10.0397 13.7523 10.9997 13.7507C11.9988 13.7507 12.9036 13.3519 13.5663 12.7029ZM7.79134 7.33398C8.15601 7.33398 8.50575 7.47885 8.76361 7.73671C9.02148 7.99457 9.16634 8.34431 9.16634 8.70898C9.16634 9.07366 9.02148 9.42339 8.76361 9.68126C8.50575 9.93912 8.15601 10.084 7.79134 10.084C7.42667 10.084 7.07693 9.93912 6.81907 9.68126C6.56121 9.42339 6.41634 9.07366 6.41634 8.70898C6.41634 8.34431 6.56121 7.99457 6.81907 7.73671C7.07693 7.47885 7.42667 7.33398 7.79134 7.33398ZM14.208 7.33398C14.5727 7.33398 14.9224 7.47885 15.1803 7.73671C15.4381 7.99457 15.583 8.34431 15.583 8.70898C15.583 9.07366 15.4381 9.42339 15.1803 9.68126C14.9224 9.93912 14.5727 10.084 14.208 10.084C13.8433 10.084 13.4936 9.93912 13.2357 9.68126C12.9779 9.42339 12.833 9.07366 12.833 8.70898C12.833 8.34431 12.9779 7.99457 13.2357 7.73671C13.4936 7.47885 13.8433 7.33398 14.208 7.33398Z" fill="#474F69"/>
</svg>
