<svg width="23" height="23" viewBox="0 0 23 23" fill="none" xmlns="http://www.w3.org/2000/svg">
<path d="M22.2192 11.2089C22.1878 11.1379 21.4268 9.44977 19.7351 7.75801C17.4809 5.50383 14.6337 4.3125 11.5 4.3125C8.36624 4.3125 5.51909 5.50383 3.26491 7.75801C1.57316 9.44977 0.808585 11.1406 0.780734 11.2089C0.739867 11.3008 0.71875 11.4003 0.71875 11.5009C0.71875 11.6015 0.739867 11.701 0.780734 11.7929C0.812179 11.8639 1.57316 13.5511 3.26491 15.2429C5.51909 17.4962 8.36624 18.6875 11.5 18.6875C14.6337 18.6875 17.4809 17.4962 19.7351 15.2429C21.4268 13.5511 22.1878 11.8639 22.2192 11.7929C22.2601 11.701 22.2812 11.6015 22.2812 11.5009C22.2812 11.4003 22.2601 11.3008 22.2192 11.2089ZM11.5 17.25C8.7346 17.25 6.3187 16.2446 4.31878 14.2627C3.49819 13.4466 2.80005 12.5161 2.24609 11.5C2.7999 10.4838 3.49805 9.55324 4.31878 8.7373C6.3187 6.75535 8.7346 5.75 11.5 5.75C14.2654 5.75 16.6813 6.75535 18.6812 8.7373C19.5034 9.55305 20.2031 10.4836 20.7584 11.5C20.1106 12.7093 17.2886 17.25 11.5 17.25ZM11.5 7.1875C10.6471 7.1875 9.81328 7.44042 9.10409 7.91429C8.39491 8.38815 7.84216 9.06167 7.51576 9.84968C7.18936 10.6377 7.10396 11.5048 7.27035 12.3413C7.43675 13.1779 7.84748 13.9463 8.45059 14.5494C9.05371 15.1525 9.82212 15.5632 10.6587 15.7296C11.4952 15.896 12.3623 15.8106 13.1503 15.4842C13.9383 15.1578 14.6118 14.6051 15.0857 13.8959C15.5596 13.1867 15.8125 12.3529 15.8125 11.5C15.8113 10.3566 15.3566 9.26041 14.5481 8.45192C13.7396 7.64342 12.6434 7.18869 11.5 7.1875ZM11.5 14.375C10.9314 14.375 10.3755 14.2064 9.90273 13.8905C9.42994 13.5746 9.06144 13.1256 8.84384 12.6002C8.62624 12.0749 8.5693 11.4968 8.68023 10.9391C8.79117 10.3814 9.06498 9.86914 9.46706 9.46707C9.86913 9.06499 10.3814 8.79117 10.9391 8.68024C11.4968 8.56931 12.0749 8.62624 12.6002 8.84385C13.1255 9.06145 13.5746 9.42994 13.8905 9.90274C14.2064 10.3755 14.375 10.9314 14.375 11.5C14.375 12.2625 14.0721 12.9938 13.5329 13.5329C12.9938 14.0721 12.2625 14.375 11.5 14.375Z" fill="#63697D"/>
</svg>
