<svg width="24" height="20" viewBox="0 0 24 20" fill="none" xmlns="http://www.w3.org/2000/svg">
<path d="M19.9837 14.047C22.451 12.1513 23.8115 10 23.8115 10C23.8115 10 19.4635 3.12505 12.2169 3.12505C10.7453 3.12505 9.39322 3.40857 8.17282 3.86047L9.29006 4.82406C10.2021 4.54152 11.1798 4.37505 12.2169 4.37505C15.2886 4.37505 17.8388 5.83527 19.7069 7.44643C20.6283 8.24118 21.3445 9.03996 21.8299 9.64057C21.9353 9.77101 22.0294 9.89156 22.1119 10C22.0294 10.1085 21.9353 10.2291 21.8299 10.3595C21.3445 10.9601 20.6283 11.7589 19.7069 12.5537C19.468 12.7597 19.218 12.9632 18.9571 13.1616L19.9837 14.047Z" fill="#63697D"/>
<path d="M16.996 11.4702C17.1861 11.0107 17.2895 10.5158 17.2895 10C17.2895 7.5838 15.0184 5.62505 12.2169 5.62505C11.6189 5.62505 11.045 5.7143 10.5123 5.8782L11.7041 6.9061C11.8716 6.88563 12.0428 6.87505 12.2169 6.87505C14.218 6.87505 15.8402 8.27416 15.8402 10C15.8402 10.1502 15.8279 10.2978 15.8042 10.4423L16.996 11.4702Z" fill="#63697D"/>
<path d="M12.7297 13.094L13.9216 14.1219C13.3888 14.2858 12.8149 14.375 12.2169 14.375C9.41537 14.375 7.14427 12.4163 7.14427 10C7.14427 9.48426 7.24776 8.98933 7.4378 8.52984L8.62961 9.55774C8.60588 9.70223 8.5936 9.8499 8.5936 10C8.5936 11.7259 10.2158 13.125 12.2169 13.125C12.391 13.125 12.5622 13.1145 12.7297 13.094Z" fill="#63697D"/>
<path d="M5.47674 6.83848C5.21588 7.03684 4.96584 7.2404 4.72696 7.44643C3.80548 8.24118 3.08929 9.03996 2.60394 9.64057C2.49852 9.77101 2.40444 9.89156 2.32194 10C2.40444 10.1085 2.49852 10.2291 2.60394 10.3595C3.08929 10.9601 3.80548 11.7589 4.72696 12.5537C6.59503 14.1648 9.14524 15.625 12.2169 15.625C13.254 15.625 14.2317 15.4586 15.1438 15.176L16.261 16.1396C15.0406 16.5915 13.6885 16.875 12.2169 16.875C4.97029 16.875 0.622314 10 0.622314 10C0.622314 10 1.98282 7.84882 4.45015 5.95307L5.47674 6.83848Z" fill="#63697D"/>
<path d="M20.4004 17.942L3.00855 2.94199L4.03338 2.05811L21.4253 17.0581L20.4004 17.942Z" fill="#63697D"/>
</svg>
