<svg width="14" height="24" viewBox="0 0 14 24" fill="none" xmlns="http://www.w3.org/2000/svg">
<path d="M4.66089 8.24986V16.6786C4.67062 17.2949 4.9223 17.8827 5.3616 18.3151C5.80091 18.7476 6.39261 18.9899 7.00903 18.9899C7.62545 18.9899 8.21716 18.7476 8.65646 18.3151C9.09577 17.8827 9.34744 17.2949 9.35718 16.6786L9.36479 5.63072C9.37118 5.10392 9.27295 4.58109 9.07577 4.09254C8.8786 3.60399 8.58641 3.15944 8.21615 2.78466C7.84588 2.40987 7.40491 2.11231 6.91879 1.90922C6.43266 1.70614 5.91107 1.60156 5.38423 1.60156C4.85739 1.60156 4.33579 1.70614 3.84967 1.90922C3.36355 2.11231 2.92258 2.40987 2.55231 2.78466C2.18205 3.15944 1.88986 3.60399 1.69268 4.09254C1.49551 4.58109 1.39727 5.10392 1.40366 5.63072V16.753C1.39293 17.4946 1.52974 18.231 1.80613 18.9193C2.08252 19.6076 2.49299 20.2341 3.01366 20.7624C3.53434 21.2907 4.15483 21.7102 4.83907 21.9965C5.52331 22.2828 6.25764 22.4303 6.99937 22.4303C7.7411 22.4303 8.47542 22.2828 9.15966 21.9965C9.8439 21.7102 10.4644 21.2907 10.9851 20.7624C11.5057 20.2341 11.9162 19.6076 12.1926 18.9193C12.469 18.231 12.6058 17.4946 12.5951 16.753V6.35962" stroke="#474F69" stroke-width="2" stroke-miterlimit="10" stroke-linecap="round"/>
</svg>
