<svg width="22" height="21" viewBox="0 0 22 21" fill="none" xmlns="http://www.w3.org/2000/svg">
<path d="M22 15.5C22 18.2614 19.7614 20.5 17 20.5C14.2386 20.5 12 18.2614 12 15.5C12 12.7386 14.2386 10.5 17 10.5C19.7614 10.5 22 12.7386 22 15.5ZM17 12.6875C17 12.5149 16.8601 12.375 16.6875 12.375C16.5149 12.375 16.375 12.5149 16.375 12.6875V16.125C16.375 16.2371 16.4351 16.3407 16.5325 16.3963L18.72 17.6463C18.8698 17.732 19.0607 17.6799 19.1463 17.53C19.232 17.3802 19.1799 17.1893 19.03 17.1037L17 15.9436V12.6875Z" fill="white"/>
<path d="M12 18.5H3.39858C2.88753 18.5 2.45871 18.1147 2.40427 17.6065L1.11856 5.60653C1.05523 5.01547 1.51842 4.5 2.11287 4.5H20.2192C20.8698 4.5 21.3472 5.11139 21.1894 5.74254L20 10.5" stroke="white" stroke-width="1.5" stroke-linecap="round" stroke-linejoin="round"/>
<path d="M2.5 4.5V2.5C2.5 1.94772 2.94772 1.5 3.5 1.5H10.6301C10.8688 1.5 11.0996 1.58539 11.2809 1.74074L14.5 4.5" stroke="white" stroke-width="1.5" stroke-linecap="round" stroke-linejoin="round"/>
</svg>
