<svg width="18" height="16" viewBox="0 0 18 16" fill="none" xmlns="http://www.w3.org/2000/svg">
<path d="M16.9999 11.6669C16.9999 13.7709 15.2943 15.4765 13.1904 15.4765C11.0864 15.4765 9.38086 13.7709 9.38086 11.6669C9.38086 9.563 11.0864 7.85742 13.1904 7.85742C15.2943 7.85742 16.9999 9.563 16.9999 11.6669ZM13.1904 9.52409C13.1904 9.39259 13.0838 9.28599 12.9523 9.28599C12.8208 9.28599 12.7142 9.39259 12.7142 9.52409V12.1431C12.7142 12.2286 12.76 12.3075 12.8342 12.3499L14.5008 13.3022C14.615 13.3675 14.7604 13.3278 14.8257 13.2136C14.8909 13.0995 14.8512 12.954 14.7371 12.8888L13.1904 12.005V9.52409Z" fill="#3A4DDD"/>
<path d="M9.38094 13.9528H3.04144C2.53039 13.9528 2.10157 13.5675 2.04713 13.0593L1.11856 4.39267C1.05523 3.80161 1.51842 3.28613 2.11287 3.28613H15.3383C15.9888 3.28613 16.4662 3.89752 16.3084 4.52867L15.4762 7.85756" stroke="#3A4DDD" stroke-width="1.5" stroke-linecap="round" stroke-linejoin="round"/>
<path d="M2.14258 3.28571V2C2.14258 1.44771 2.59029 1 3.14258 1H8.24884C8.48755 1 8.71839 1.08539 8.89963 1.24074L11.2854 3.28571" stroke="#3A4DDD" stroke-width="1.5" stroke-linecap="round" stroke-linejoin="round"/>
</svg>
