<svg width="17" height="15" viewBox="0 0 17 15" fill="none" xmlns="http://www.w3.org/2000/svg">
<path d="M0.372025 3.23171L0.329937 2.25188C0.329937 1.0082 1.28268 0 2.45795 0H6.36453C6.92892 0 7.47019 0.237251 7.86927 0.65956L8.75072 1.59232C9.1498 2.01463 9.69107 2.25188 10.2555 2.25188H14.4918C15.7432 2.25188 16.7244 3.38889 16.6111 4.70763L15.934 12.5892C15.8343 13.7491 14.9153 14.6372 13.8147 14.6372H2.80528C1.70467 14.6372 0.785653 13.7491 0.686008 12.5892L0.00891262 4.70763C-0.0379626 4.16199 0.10254 3.64746 0.372025 3.23171ZM2.12819 3.37782C1.50252 3.37782 1.0119 3.94632 1.06855 4.60569L1.74565 12.4873C1.79547 13.0672 2.25498 13.5113 2.80528 13.5113H13.8147C14.365 13.5113 14.8245 13.0672 14.8744 12.4873L15.5515 4.60569C15.6081 3.94632 15.1175 3.37782 14.4918 3.37782H2.12819ZM7.1169 1.45572C6.91736 1.24456 6.64672 1.12594 6.36453 1.12594H2.45795C1.87703 1.12594 1.40484 1.61859 1.39413 2.23063L1.40083 2.38659C1.62725 2.29951 1.87206 2.25188 2.12819 2.25188H7.86927L7.1169 1.45572Z" fill="#3A4DDD"/>
</svg>
