<svg width="22" height="22" viewBox="0 0 22 22" fill="none" xmlns="http://www.w3.org/2000/svg">
<path d="M6.58039 20H15.4196C17.1427 20 18 19.1184 18 17.3722V9.74913C18 8.66591 17.8835 8.19594 17.2176 7.50746L12.623 2.79773C11.9908 2.14257 11.4745 2 10.5341 2H6.58039C4.86581 2 4 2.88979 4 4.63642V17.3722C4 19.1267 4.86581 20 6.58039 20ZM6.6468 18.6485C5.78951 18.6485 5.33991 18.1864 5.33991 17.3471V4.66149C5.33991 3.83045 5.78951 3.35152 6.65532 3.35152H10.3508V8.22961C10.3508 9.2874 10.8835 9.80788 11.9155 9.80788H16.6601V17.3471C16.6601 18.1864 16.2187 18.6485 15.3532 18.6485H6.6468ZM12.0654 8.53982C11.7408 8.53982 11.6073 8.40585 11.6073 8.06985V3.61194L16.4016 8.54018L12.0654 8.53982Z" fill="#474F69"/>
</svg>
