<svg width="21" height="20" viewBox="0 0 21 20" fill="none" xmlns="http://www.w3.org/2000/svg">
<path d="M0.461562 4.92942L0.409344 3.71377C0.409344 2.17077 1.59139 0.919922 3.04952 0.919922H7.89631C8.59653 0.919922 9.26806 1.21427 9.76319 1.73822L10.8568 2.89547C11.3519 3.41942 12.0235 3.71377 12.7237 3.71377H17.9796C19.5321 3.71377 20.7495 5.12443 20.6089 6.76056L19.7689 16.539C19.6453 17.9781 18.5051 19.0799 17.1396 19.0799H3.48044C2.11494 19.0799 0.974739 17.9781 0.851112 16.539L0.0110577 6.76056C-0.0470992 6.0836 0.127219 5.44523 0.461562 4.92942ZM2.64039 5.11069C1.86414 5.11069 1.25544 5.81603 1.32572 6.63409L2.16578 16.4125C2.22759 17.1321 2.79769 17.683 3.48044 17.683H17.1396C17.8223 17.683 18.3924 17.1321 18.4542 16.4125L19.2943 6.63409C19.3646 5.81602 18.7559 5.11069 17.9796 5.11069H2.64039ZM8.82975 2.72599C8.58219 2.46402 8.24642 2.31684 7.89631 2.31684H3.04952C2.32878 2.31684 1.74294 2.92807 1.72966 3.6874L1.73797 3.8809C2.01889 3.77287 2.32262 3.71377 2.64039 3.71377H9.76319L8.82975 2.72599Z" fill="#5968D4"/>
</svg>
