<svg width="19" height="15" viewBox="0 0 19 15" fill="none" xmlns="http://www.w3.org/2000/svg">
<path d="M19 7.5C19 7.5 15.4375 0.96875 9.5 0.96875C3.5625 0.96875 0 7.5 0 7.5C0 7.5 3.5625 14.0312 9.5 14.0312C15.4375 14.0312 19 7.5 19 7.5ZM1.39258 7.5C1.46018 7.39694 1.53727 7.28242 1.62364 7.1585C2.02131 6.58792 2.60812 5.82907 3.36313 5.07406C4.89373 3.54347 6.98323 2.15625 9.5 2.15625C12.0168 2.15625 14.1063 3.54347 15.6369 5.07406C16.3919 5.82907 16.9787 6.58792 17.3764 7.1585C17.4627 7.28242 17.5398 7.39694 17.6074 7.5C17.5398 7.60306 17.4627 7.71758 17.3764 7.8415C16.9787 8.41208 16.3919 9.17093 15.6369 9.92594C14.1063 11.4565 12.0168 12.8438 9.5 12.8438C6.98323 12.8438 4.89373 11.4565 3.36313 9.92594C2.60812 9.17093 2.02131 8.41208 1.62364 7.8415C1.53727 7.71758 1.46018 7.60306 1.39258 7.5Z" fill="#3A4DDD"/>
<path d="M9.5 4.53125C7.8604 4.53125 6.53125 5.8604 6.53125 7.5C6.53125 9.1396 7.8604 10.4688 9.5 10.4688C11.1396 10.4688 12.4688 9.1396 12.4688 7.5C12.4688 5.8604 11.1396 4.53125 9.5 4.53125ZM5.34375 7.5C5.34375 5.20457 7.20457 3.34375 9.5 3.34375C11.7954 3.34375 13.6562 5.20457 13.6562 7.5C13.6562 9.79543 11.7954 11.6562 9.5 11.6562C7.20457 11.6562 5.34375 9.79543 5.34375 7.5Z" fill="#3A4DDD"/>
</svg>
