<svg width="22" height="22" viewBox="0 0 22 22" fill="none" xmlns="http://www.w3.org/2000/svg">
<path d="M22 11.5C22 11.5 18.0625 4.28125 11.5 4.28125C4.9375 4.28125 1 11.5 1 11.5C1 11.5 4.9375 18.7188 11.5 18.7188C18.0625 18.7188 22 11.5 22 11.5ZM2.53917 11.5C2.61388 11.3861 2.69909 11.2595 2.79455 11.1225C3.23408 10.4919 3.88266 9.65319 4.71714 8.8187C6.40885 7.12699 8.71831 5.59375 11.5 5.59375C14.2817 5.59375 16.5911 7.12699 18.2829 8.8187C19.1173 9.65319 19.7659 10.4919 20.2055 11.1225C20.3009 11.2595 20.3861 11.3861 20.4608 11.5C20.3861 11.6139 20.3009 11.7405 20.2055 11.8775C19.7659 12.5081 19.1173 13.3468 18.2829 14.1813C16.5911 15.873 14.2817 17.4062 11.5 17.4062C8.71831 17.4062 6.40885 15.873 4.71714 14.1813C3.88266 13.3468 3.23408 12.5081 2.79455 11.8775C2.69909 11.7405 2.61388 11.6139 2.53917 11.5Z" fill="#63697D"/>
<path d="M11.5 8.21875C9.68782 8.21875 8.21875 9.68782 8.21875 11.5C8.21875 13.3122 9.68782 14.7812 11.5 14.7812C13.3122 14.7812 14.7812 13.3122 14.7812 11.5C14.7812 9.68782 13.3122 8.21875 11.5 8.21875ZM6.90625 11.5C6.90625 8.96294 8.96294 6.90625 11.5 6.90625C14.0371 6.90625 16.0938 8.96294 16.0938 11.5C16.0938 14.0371 14.0371 16.0938 11.5 16.0938C8.96294 16.0938 6.90625 14.0371 6.90625 11.5Z" fill="#63697D"/>
</svg>
