<svg width="12" height="21" viewBox="0 0 12 21" fill="none" xmlns="http://www.w3.org/2000/svg">
<g clip-path="url(#clip0_7374_32264)">
<path d="M11.5411 20.551C11.8349 20.2634 12 19.8733 12 19.4667C12 19.06 11.8349 18.67 11.5411 18.3824L3.78308 10.7907L11.5411 3.19912C11.8266 2.90986 11.9846 2.52246 11.981 2.12033C11.9774 1.71821 11.8126 1.33355 11.522 1.0492C11.2314 0.764845 10.8383 0.603554 10.4274 0.60006C10.0165 0.596565 9.62058 0.75115 9.32499 1.03052L0.458878 9.70644C0.165059 9.99405 0 10.3841 0 10.7907C0 11.1974 0.165059 11.5874 0.458878 11.875L9.32499 20.551C9.6189 20.8385 10.0175 21 10.4331 21C10.8486 21 11.2472 20.8385 11.5411 20.551Z" fill="#3A4DDD"/>
</g>
<defs>
<clipPath id="clip0_7374_32264">
<rect width="21" height="12" fill="white" transform="matrix(0 -1 1 0 0 21)"/>
</clipPath>
</defs>
</svg>
