<svg width="19" height="18" viewBox="0 0 19 18" fill="none" xmlns="http://www.w3.org/2000/svg">
<path d="M7.25 7.5L9.6935 9.333C9.84488 9.44653 10.0336 9.49865 10.2218 9.4789C10.41 9.45915 10.5837 9.36899 10.7083 9.2265L15.5 3.75" stroke="#63697D" stroke-width="2" stroke-linecap="round"/>
<path d="M16.25 8.99988C16.25 10.4103 15.8083 11.7852 14.9867 12.9317C14.1652 14.0781 13.0052 14.9384 11.6697 15.3918C10.3341 15.8451 8.89013 15.8688 7.54048 15.4593C6.19082 15.0499 5.00332 14.228 4.14476 13.109C3.28619 11.99 2.7997 10.6302 2.75361 9.2206C2.70751 7.81096 3.10414 6.42228 3.88777 5.24962C4.6714 4.07696 5.80267 3.17922 7.1227 2.68249C8.44273 2.18576 9.88519 2.11499 11.2475 2.48013" stroke="#63697D" stroke-width="2" stroke-linecap="round"/>
</svg>
