<svg width="16" height="16" viewBox="0 0 16 16" fill="none" xmlns="http://www.w3.org/2000/svg">
<path d="M8.00065 7.66634C7.55862 7.66634 7.1347 7.49075 6.82214 7.17819C6.50958 6.86563 6.33398 6.4417 6.33398 5.99967C6.33398 5.55765 6.50958 5.13372 6.82214 4.82116C7.1347 4.5086 7.55862 4.33301 8.00065 4.33301C8.44268 4.33301 8.8666 4.5086 9.17916 4.82116C9.49172 5.13372 9.66732 5.55765 9.66732 5.99967C9.66732 6.21854 9.62421 6.43527 9.54045 6.63748C9.45669 6.83969 9.33393 7.02342 9.17916 7.17819C9.0244 7.33295 8.84067 7.45572 8.63846 7.53947C8.43625 7.62323 8.21952 7.66634 8.00065 7.66634ZM8.00065 1.33301C6.76297 1.33301 5.57599 1.82467 4.70082 2.69984C3.82565 3.57501 3.33398 4.762 3.33398 5.99967C3.33398 9.49967 8.00065 14.6663 8.00065 14.6663C8.00065 14.6663 12.6673 9.49967 12.6673 5.99967C12.6673 4.762 12.1757 3.57501 11.3005 2.69984C10.4253 1.82467 9.23833 1.33301 8.00065 1.33301Z" fill="#63697D"/>
</svg>
