<svg width="20" height="21" viewBox="0 0 20 21" fill="none" xmlns="http://www.w3.org/2000/svg">
<path d="M10.0001 10.0832C9.44755 10.0832 8.91764 9.86368 8.52694 9.47298C8.13624 9.08228 7.91675 8.55237 7.91675 7.99984C7.91675 7.4473 8.13624 6.9174 8.52694 6.5267C8.91764 6.136 9.44755 5.9165 10.0001 5.9165C10.5526 5.9165 11.0825 6.136 11.4732 6.5267C11.8639 6.9174 12.0834 7.4473 12.0834 7.99984C12.0834 8.27342 12.0295 8.54433 11.9248 8.79709C11.8201 9.04986 11.6667 9.27952 11.4732 9.47298C11.2798 9.66643 11.0501 9.81989 10.7973 9.92459C10.5446 10.0293 10.2737 10.0832 10.0001 10.0832ZM10.0001 2.1665C8.45299 2.1665 6.96925 2.78109 5.87529 3.87505C4.78133 4.96901 4.16675 6.45274 4.16675 7.99984C4.16675 12.3748 10.0001 18.8332 10.0001 18.8332C10.0001 18.8332 15.8334 12.3748 15.8334 7.99984C15.8334 6.45274 15.2188 4.96901 14.1249 3.87505C13.0309 2.78109 11.5472 2.1665 10.0001 2.1665Z" fill="#474F69"/>
</svg>
