<svg width="22" height="22" viewBox="0 0 22 22" fill="none" xmlns="http://www.w3.org/2000/svg">
<path fill-rule="evenodd" clip-rule="evenodd" d="M13.25 17.1875C13.25 17.5672 12.9982 17.875 12.6875 17.875L3.6875 17.875C3.37684 17.875 3.125 17.5672 3.125 17.1875L3.125 4.8125C3.125 4.4328 3.37684 4.125 3.6875 4.125L12.6875 4.125C12.9982 4.125 13.25 4.4328 13.25 4.8125L13.25 7.5625C13.25 7.9422 13.5018 8.25 13.8125 8.25C14.1232 8.25 14.375 7.9422 14.375 7.5625L14.375 4.8125C14.375 3.67341 13.6195 2.75 12.6875 2.75L3.6875 2.75C2.75552 2.75 2 3.67341 2 4.8125L2 17.1875C2 18.3266 2.75552 19.25 3.6875 19.25L12.6875 19.25C13.6195 19.25 14.375 18.3266 14.375 17.1875L14.375 14.4375C14.375 14.0578 14.1232 13.75 13.8125 13.75C13.5018 13.75 13.25 14.0578 13.25 14.4375L13.25 17.1875Z" fill="#5968D4"/>
<path fill-rule="evenodd" clip-rule="evenodd" d="M19.8352 11.4861C20.0549 11.2177 20.0549 10.7823 19.8352 10.5139L16.4602 6.38886C16.2406 6.12038 15.8844 6.12038 15.6648 6.38886C15.4451 6.65735 15.4451 7.09265 15.6648 7.36114L18.0795 10.3125L8.1875 10.3125C7.87684 10.3125 7.625 10.6203 7.625 11C7.625 11.3797 7.87684 11.6875 8.1875 11.6875L18.0795 11.6875L15.6648 14.6389C15.4451 14.9073 15.4451 15.3427 15.6648 15.6111C15.8844 15.8796 16.2406 15.8796 16.4602 15.6111L19.8352 11.4861Z" fill="#5968D4"/>
</svg>
