<svg width="190" height="116" viewBox="0 0 190 116" fill="none" xmlns="http://www.w3.org/2000/svg">
<path fill-rule="evenodd" clip-rule="evenodd" d="M39.6375 99.1949C44.1278 88.7165 46.9266 73.921 46.9266 57.5229C46.9266 41.6679 44.3101 27.3111 40.078 16.9062C42.1916 14.7897 44.5037 13.6235 46.9266 13.6235C52.3174 13.6235 57.1597 19.3963 60.4865 28.5644C56.8438 35.1988 54.4914 45.7014 54.4914 57.5227C54.4914 69.6959 56.986 80.4707 60.8153 87.0632C57.4831 96.77 52.4977 102.935 46.9266 102.935C44.3342 102.935 41.8687 101.601 39.6375 99.1949ZM39.6375 99.1949C35.4284 109.017 29.733 115.046 23.4633 115.046C10.5049 115.046 0 89.292 0 57.5229C0 25.7539 10.5049 0 23.4633 0C29.9546 0 35.8301 6.46243 40.078 16.9062C33.4403 23.5531 28.7615 39.5731 28.7615 58.2795C28.7615 76.5694 33.2342 92.2911 39.6375 99.1949ZM60.8153 87.0632C63.2976 91.3369 66.3409 93.8529 69.629 93.8529C77.9893 93.8529 84.7666 77.5873 84.7666 57.5227C84.7666 37.458 77.9893 21.1924 69.629 21.1924C66.1942 21.1924 63.0267 23.9379 60.4865 28.5644C63.3509 36.4582 65.0917 46.8691 65.0917 58.2795C65.0917 69.2466 63.4836 79.2903 60.8153 87.0632Z" fill="url(#paint0_linear_2318_27729)"/>
<path d="M96.021 34.3007V19.3874H102.306C103.916 19.3874 105.142 19.7424 105.986 20.4526C106.829 21.1486 107.25 22.086 107.25 23.2648C107.25 24.0602 107.084 24.742 106.752 25.3101C106.42 25.864 105.973 26.2972 105.411 26.6097C104.861 26.908 104.261 27.0571 103.609 27.0571L103.954 26.2901C104.708 26.2901 105.385 26.4464 105.986 26.7588C106.586 27.0571 107.059 27.4974 107.404 28.0797C107.761 28.662 107.94 29.3864 107.94 30.2528C107.94 31.5311 107.499 32.5253 106.618 33.2355C105.736 33.9456 104.427 34.3007 102.69 34.3007H96.021ZM98.5121 32.1276H102.536C103.469 32.1276 104.184 31.9572 104.683 31.6163C105.181 31.2754 105.43 30.7286 105.43 29.9758C105.43 29.2373 105.181 28.6976 104.683 28.3567C104.184 28.0016 103.469 27.8241 102.536 27.8241H98.3205V25.6723H102.038C102.907 25.6723 103.571 25.5018 104.031 25.161C104.504 24.8201 104.74 24.3088 104.74 23.627C104.74 22.9311 104.504 22.4126 104.031 22.0718C103.571 21.7309 102.907 21.5605 102.038 21.5605H98.5121V32.1276Z" fill="#3A4DDD"/>
<path d="M117.153 34.5138C116.105 34.5138 115.14 34.322 114.259 33.9385C113.377 33.555 112.611 33.0224 111.959 32.3407C111.308 31.6447 110.803 30.8351 110.446 29.9119C110.088 28.9745 109.909 27.9519 109.909 26.844C109.909 25.7362 110.088 24.7207 110.446 23.7975C110.803 22.86 111.308 22.0505 111.959 21.3687C112.611 20.6728 113.377 20.133 114.259 19.7495C115.14 19.3661 116.099 19.1743 117.133 19.1743C118.181 19.1743 119.139 19.3661 120.008 19.7495C120.889 20.133 121.656 20.6728 122.307 21.3687C122.959 22.0505 123.463 22.86 123.821 23.7975C124.179 24.7207 124.358 25.7362 124.358 26.844C124.358 27.9519 124.179 28.9745 123.821 29.9119C123.463 30.8493 122.959 31.6589 122.307 32.3407C121.656 33.0224 120.889 33.555 120.008 33.9385C119.139 34.322 118.187 34.5138 117.153 34.5138ZM117.133 32.085C117.81 32.085 118.436 31.9572 119.011 31.7015C119.586 31.4459 120.084 31.0837 120.506 30.615C120.928 30.1321 121.253 29.5782 121.483 28.9532C121.726 28.3141 121.847 27.611 121.847 26.844C121.847 26.0771 121.726 25.3811 121.483 24.7562C121.253 24.117 120.928 23.5631 120.506 23.0944C120.084 22.6115 119.586 22.2422 119.011 21.9865C118.436 21.7309 117.81 21.6031 117.133 21.6031C116.456 21.6031 115.83 21.7309 115.255 21.9865C114.693 22.2422 114.195 22.6115 113.761 23.0944C113.339 23.5631 113.007 24.117 112.764 24.7562C112.534 25.3811 112.419 26.0771 112.419 26.844C112.419 27.5968 112.534 28.2928 112.764 28.9319C113.007 29.5711 113.339 30.1321 113.761 30.615C114.182 31.0837 114.681 31.4459 115.255 31.7015C115.83 31.9572 116.456 32.085 117.133 32.085Z" fill="#3A4DDD"/>
<path d="M133.552 34.5138C132.504 34.5138 131.54 34.322 130.658 33.9385C129.777 33.555 129.01 33.0224 128.359 32.3407C127.707 31.6447 127.203 30.8351 126.845 29.9119C126.487 28.9745 126.308 27.9519 126.308 26.844C126.308 25.7362 126.487 24.7207 126.845 23.7975C127.203 22.86 127.707 22.0505 128.359 21.3687C129.01 20.6728 129.777 20.133 130.658 19.7495C131.54 19.3661 132.498 19.1743 133.533 19.1743C134.58 19.1743 135.539 19.3661 136.407 19.7495C137.289 20.133 138.055 20.6728 138.707 21.3687C139.358 22.0505 139.863 22.86 140.221 23.7975C140.578 24.7207 140.757 25.7362 140.757 26.844C140.757 27.9519 140.578 28.9745 140.221 29.9119C139.863 30.8493 139.358 31.6589 138.707 32.3407C138.055 33.0224 137.289 33.555 136.407 33.9385C135.539 34.322 134.587 34.5138 133.552 34.5138ZM133.533 32.085C134.21 32.085 134.836 31.9572 135.411 31.7015C135.986 31.4459 136.484 31.0837 136.905 30.615C137.327 30.1321 137.653 29.5782 137.883 28.9532C138.125 28.3141 138.247 27.611 138.247 26.844C138.247 26.0771 138.125 25.3811 137.883 24.7562C137.653 24.117 137.327 23.5631 136.905 23.0944C136.484 22.6115 135.986 22.2422 135.411 21.9865C134.836 21.7309 134.21 21.6031 133.533 21.6031C132.856 21.6031 132.23 21.7309 131.655 21.9865C131.093 22.2422 130.595 22.6115 130.16 23.0944C129.739 23.5631 129.406 24.117 129.164 24.7562C128.934 25.3811 128.819 26.0771 128.819 26.844C128.819 27.5968 128.934 28.2928 129.164 28.9319C129.406 29.5711 129.739 30.1321 130.16 30.615C130.582 31.0837 131.08 31.4459 131.655 31.7015C132.23 31.9572 132.856 32.085 133.533 32.085Z" fill="#3A4DDD"/>
<path d="M145.889 30.7854L145.755 27.5045L152.787 19.3874H155.585L149.741 26.2901L148.361 27.9732L145.889 30.7854ZM143.666 34.3007V19.3874H146.157V34.3007H143.666ZM153.017 34.3007L147.882 27.5045L149.53 25.4805L155.93 34.3007H153.017Z" fill="#3A4DDD"/>
<path d="M161.562 34.3007L167.598 19.3874H170.051L176.106 34.3007H173.5L168.307 20.8574H169.304L164.13 34.3007H161.562ZM164.34 30.8493L165.011 28.6763H172.255L172.925 30.8493H164.34Z" fill="#3A4DDD"/>
<path d="M178.08 34.3007V19.3874H180.131L188.543 30.8706H187.528V19.3874H190V34.3007H187.949L179.537 22.8174H180.552V34.3007H178.08Z" fill="#3A4DDD"/>
<path d="M100.615 55.0413H119.38V59.4981H100.615V55.0413ZM101.084 71.3478H122.351V75.9094H95.8716V39.2068H121.621V43.7684H101.084V71.3478Z" fill="#3A4DDD"/>
<path d="M139.192 75.9094V61.8575L140.391 65.1083L124.702 39.2068H130.279L143.467 61.071H140.443L153.683 39.2068H158.843L143.206 65.1083L144.353 61.8575V75.9094H139.192Z" fill="#3A4DDD"/>
<path d="M168.264 55.0413H187.029V59.4981H168.264V55.0413ZM168.733 71.3478H190V75.9094H163.521V39.2068H189.27V43.7684H168.733V71.3478Z" fill="#3A4DDD"/>
<path d="M96.021 95.6585V80.7452H101.809C103.247 80.7452 104.508 81.0576 105.592 81.6826C106.677 82.3075 107.522 83.1739 108.127 84.2818C108.732 85.3896 109.035 86.6963 109.035 88.2018C109.035 89.6932 108.732 90.9999 108.127 92.1219C107.522 93.2298 106.677 94.0962 105.592 94.7211C104.508 95.346 103.247 95.6585 101.809 95.6585H96.021ZM98.48 93.315H101.696C102.692 93.315 103.549 93.1019 104.268 92.6758C105 92.2497 105.561 91.6532 105.952 90.8862C106.355 90.1193 106.557 89.2245 106.557 88.2018C106.557 87.165 106.355 86.2702 105.952 85.5174C105.561 84.7505 105 84.1539 104.268 83.7278C103.549 83.3017 102.692 83.0887 101.696 83.0887H98.48V93.315Z" fill="#3A4DDD"/>
<path d="M119.934 95.8716C118.9 95.8716 117.947 95.6798 117.077 95.2963C116.207 94.9128 115.451 94.3802 114.807 93.6985C114.164 93.0025 113.666 92.1929 113.313 91.2697C112.96 90.3323 112.783 89.3097 112.783 88.2018C112.783 87.094 112.96 86.0785 113.313 85.1553C113.666 84.2178 114.164 83.4083 114.807 82.7265C115.451 82.0305 116.207 81.4908 117.077 81.1073C117.947 80.7239 118.893 80.5321 119.915 80.5321C120.949 80.5321 121.895 80.7239 122.752 81.1073C123.622 81.4908 124.379 82.0305 125.022 82.7265C125.665 83.4083 126.163 84.2178 126.516 85.1553C126.869 86.0785 127.046 87.094 127.046 88.2018C127.046 89.3097 126.869 90.3323 126.516 91.2697C126.163 92.2071 125.665 93.0167 125.022 93.6985C124.379 94.3802 123.622 94.9128 122.752 95.2963C121.895 95.6798 120.955 95.8716 119.934 95.8716ZM119.915 93.4428C120.583 93.4428 121.201 93.315 121.768 93.0593C122.336 92.8037 122.828 92.4415 123.244 91.9728C123.66 91.4899 123.982 90.936 124.209 90.311C124.448 89.6719 124.568 88.9688 124.568 88.2018C124.568 87.4349 124.448 86.7389 124.209 86.114C123.982 85.4748 123.66 84.9209 123.244 84.4522C122.828 83.9693 122.336 83.6 121.768 83.3443C121.201 83.0887 120.583 82.9609 119.915 82.9609C119.246 82.9609 118.628 83.0887 118.061 83.3443C117.506 83.6 117.014 83.9693 116.586 84.4522C116.169 84.9209 115.842 85.4748 115.602 86.114C115.375 86.7389 115.261 87.4349 115.261 88.2018C115.261 88.9546 115.375 89.6506 115.602 90.2897C115.842 90.9288 116.169 91.4899 116.586 91.9728C117.002 92.4415 117.493 92.8037 118.061 93.0593C118.628 93.315 119.246 93.4428 119.915 93.4428Z" fill="#3A4DDD"/>
<path d="M137.862 95.8716C136.853 95.8716 135.913 95.6869 135.043 95.3176C134.186 94.9342 133.436 94.4015 132.792 93.7198C132.162 93.0238 131.67 92.2071 131.317 91.2697C130.964 90.3323 130.787 89.3097 130.787 88.2018C130.787 87.094 130.964 86.0714 131.317 85.1339C131.67 84.1965 132.168 83.387 132.811 82.7052C133.454 82.0092 134.205 81.4766 135.062 81.1073C135.92 80.7239 136.859 80.5321 137.881 80.5321C138.965 80.5321 139.955 80.7452 140.85 81.1713C141.746 81.5831 142.502 82.201 143.12 83.0248L141.531 84.7078C141.052 84.1255 140.516 83.6923 139.924 83.4083C139.331 83.11 138.688 82.9609 137.994 82.9609C137.301 82.9609 136.664 83.0887 136.084 83.3443C135.516 83.6 135.018 83.9622 134.589 84.4309C134.173 84.8996 133.845 85.4535 133.606 86.0927C133.379 86.7318 133.265 87.4349 133.265 88.2018C133.265 88.9688 133.379 89.6719 133.606 90.311C133.845 90.9502 134.173 91.5041 134.589 91.9728C135.018 92.4415 135.516 92.8037 136.084 93.0593C136.664 93.315 137.301 93.4428 137.994 93.4428C138.688 93.4428 139.331 93.3008 139.924 93.0167C140.516 92.7185 141.052 92.271 141.531 91.6745L143.12 93.3789C142.502 94.1885 141.746 94.8063 140.85 95.2324C139.955 95.6585 138.959 95.8716 137.862 95.8716Z" fill="#3A4DDD"/>
<path d="M150.095 95.6585V83.0887H145.707V80.7452H156.943V83.0887H152.554V95.6585H150.095Z" fill="#3A4DDD"/>
<path d="M166.889 95.8716C165.855 95.8716 164.903 95.6798 164.032 95.2963C163.162 94.9128 162.406 94.3802 161.763 93.6985C161.119 93.0025 160.621 92.1929 160.268 91.2697C159.915 90.3323 159.739 89.3097 159.739 88.2018C159.739 87.094 159.915 86.0785 160.268 85.1553C160.621 84.2178 161.119 83.4083 161.763 82.7265C162.406 82.0305 163.162 81.4908 164.032 81.1073C164.903 80.7239 165.848 80.5321 166.87 80.5321C167.904 80.5321 168.85 80.7239 169.707 81.1073C170.577 81.4908 171.334 82.0305 171.977 82.7265C172.62 83.4083 173.118 84.2178 173.471 85.1553C173.824 86.0785 174.001 87.094 174.001 88.2018C174.001 89.3097 173.824 90.3323 173.471 91.2697C173.118 92.2071 172.62 93.0167 171.977 93.6985C171.334 94.3802 170.577 94.9128 169.707 95.2963C168.85 95.6798 167.91 95.8716 166.889 95.8716ZM166.87 93.4428C167.538 93.4428 168.156 93.315 168.723 93.0593C169.291 92.8037 169.783 92.4415 170.199 91.9728C170.615 91.4899 170.937 90.936 171.164 90.311C171.403 89.6719 171.523 88.9688 171.523 88.2018C171.523 87.4349 171.403 86.7389 171.164 86.114C170.937 85.4748 170.615 84.9209 170.199 84.4522C169.783 83.9693 169.291 83.6 168.723 83.3443C168.156 83.0887 167.538 82.9609 166.87 82.9609C166.201 82.9609 165.583 83.0887 165.016 83.3443C164.461 83.6 163.969 83.9693 163.541 84.4522C163.124 84.9209 162.797 85.4748 162.557 86.114C162.33 86.7389 162.217 87.4349 162.217 88.2018C162.217 88.9546 162.33 89.6506 162.557 90.2897C162.797 90.9288 163.124 91.4899 163.541 91.9728C163.957 92.4415 164.449 92.8037 165.016 93.0593C165.583 93.315 166.201 93.4428 166.87 93.4428Z" fill="#3A4DDD"/>
<path d="M178.688 95.6585V80.7452H184.136C185.309 80.7452 186.311 80.9582 187.143 81.3843C187.988 81.8104 188.638 82.4211 189.092 83.2165C189.546 84.0119 189.773 84.9564 189.773 86.05C189.773 87.1437 189.546 88.0882 189.092 88.8836C188.638 89.6648 187.988 90.2684 187.143 90.6945C186.311 91.1064 185.309 91.3123 184.136 91.3123H180.05L181.147 90.0554V95.6585H178.688ZM187.352 95.6585L184.003 90.2471H186.633L190 95.6585H187.352ZM181.147 90.3536L180.05 89.0327H184.022C185.107 89.0327 185.92 88.77 186.463 88.2444C187.017 87.7189 187.295 86.9875 187.295 86.05C187.295 85.0984 187.017 84.367 186.463 83.8557C185.92 83.3443 185.107 83.0887 184.022 83.0887H180.05L181.147 81.7252V90.3536Z" fill="#3A4DDD"/>
<defs>
<linearGradient id="paint0_linear_2318_27729" x1="24.055" y1="21.9633" x2="148.514" y2="138.055" gradientUnits="userSpaceOnUse">
<stop stop-color="#3A4DDD"/>
<stop offset="0.524236" stop-color="#42D7C5"/>
</linearGradient>
</defs>
</svg>
