<svg width="231" height="132" viewBox="0 0 231 132" fill="none" xmlns="http://www.w3.org/2000/svg">
<path fill-rule="evenodd" clip-rule="evenodd" d="M45.4786 113.814C50.6308 101.791 53.8421 84.8149 53.8421 66C53.8421 47.8086 50.8401 31.3362 45.9844 19.3979C48.4093 16.9697 51.062 15.6318 53.8419 15.6318C60.0281 15.6318 65.5849 22.2575 69.402 32.7797C65.2241 40.3922 62.5262 52.4401 62.5262 66.0003C62.5262 79.9642 65.3872 92.3245 69.7791 99.889C65.9559 111.029 60.235 118.106 53.8419 118.106C50.8674 118.106 48.0385 116.574 45.4786 113.814ZM45.4786 113.814C40.6492 125.083 34.1146 132 26.9211 132C12.053 132 0 102.451 0 66C0 29.5492 12.053 0 26.9211 0C34.369 0 41.1105 7.41489 45.9844 19.3979C38.3683 27.0241 32.9998 45.4052 32.9998 66.8687C32.9998 87.8539 38.1317 105.892 45.4786 113.814ZM69.7791 99.889C72.6278 104.796 76.1207 107.684 79.8947 107.684C89.487 107.684 97.2631 89.0218 97.2631 66.0003C97.2631 42.9787 89.487 24.3161 79.8947 24.3161C75.9524 24.3161 72.317 27.4682 69.402 32.7797C72.6874 41.8362 74.684 53.7792 74.684 66.8687C74.684 79.4495 72.8395 90.9713 69.7791 99.889Z" fill="white"/>
<path d="M111.821 68.6017V80.1036H141.273V86.4361H104.441V44.564H141.208V50.8965H111.821V62.5276H135.901V68.6017H111.821Z" fill="white"/>
<path d="M187.428 44.564L170.339 72.8018V86.4361H162.96V72.8018L145.871 44.564H154.351L168.786 69.2479H164.772L179.013 44.564H187.428Z" fill="white"/>
<path d="M200.605 68.6017V80.1036H230.058V86.4361H193.226V44.564H229.993V50.8965H200.605V62.5276H224.685V68.6017H200.605Z" fill="white"/>
<path d="M104.441 39.1413V23.777H113.276C115.329 23.777 116.884 24.1253 117.942 24.8218C119.016 25.5026 119.552 26.5237 119.552 27.8852C119.552 28.7559 119.339 29.4446 118.913 29.9512C118.487 30.442 117.879 30.8061 117.089 31.0436C116.315 31.281 115.4 31.4314 114.342 31.4948L114.436 31.3285C115.21 31.3444 115.936 31.3998 116.615 31.4948C117.31 31.5897 117.918 31.7639 118.439 32.0172C118.96 32.2705 119.371 32.6267 119.671 33.0858C119.971 33.5291 120.121 34.1148 120.121 34.8431C120.121 35.793 119.868 36.5845 119.363 37.2178C118.858 37.8352 118.155 38.3022 117.255 38.6189C116.355 38.9355 115.313 39.1096 114.129 39.1413H104.441ZM107.591 36.5291H113.797C114.792 36.5291 115.558 36.3708 116.094 36.0542C116.631 35.7217 116.9 35.1993 116.9 34.4869C116.9 33.9644 116.742 33.5845 116.426 33.347C116.11 33.1095 115.692 32.9671 115.171 32.9196C114.65 32.8562 114.089 32.8246 113.489 32.8246H107.591V36.5291ZM107.591 30.2837H113.157C114.152 30.2837 114.918 30.1412 115.455 29.8562C115.992 29.5554 116.26 29.0488 116.26 28.3364C116.26 27.624 115.992 27.1253 115.455 26.8403C114.918 26.5395 114.207 26.3891 113.323 26.3891H107.591V30.2837Z" fill="white"/>
<path d="M132.372 39.45C130.335 39.45 128.591 39.1334 127.138 38.5001C125.701 37.851 124.596 36.9328 123.822 35.7455C123.064 34.5581 122.685 33.1333 122.685 31.471C122.685 29.7929 123.064 28.3601 123.822 27.1728C124.596 25.9854 125.701 25.0751 127.138 24.4419C128.591 23.7928 130.335 23.4683 132.372 23.4683C134.425 23.4683 136.17 23.7928 137.607 24.4419C139.044 25.0751 140.141 25.9854 140.899 27.1728C141.673 28.3601 142.059 29.7929 142.059 31.471C142.059 33.1333 141.673 34.5581 140.899 35.7455C140.141 36.9328 139.044 37.851 137.607 38.5001C136.17 39.1334 134.425 39.45 132.372 39.45ZM132.372 36.7191C133.636 36.7191 134.741 36.5291 135.688 36.1492C136.651 35.7692 137.401 35.1914 137.938 34.4156C138.491 33.6399 138.767 32.6584 138.767 31.471C138.767 30.2837 138.491 29.3021 137.938 28.5264C137.401 27.7506 136.651 27.1728 135.688 26.7928C134.741 26.3971 133.636 26.1992 132.372 26.1992C131.125 26.1992 130.012 26.3971 129.033 26.7928C128.054 27.1728 127.288 27.7506 126.735 28.5264C126.183 29.3021 125.906 30.2837 125.906 31.471C125.906 32.6584 126.183 33.6399 126.735 34.4156C127.288 35.1914 128.054 35.7692 129.033 36.1492C130.012 36.5291 131.125 36.7191 132.372 36.7191Z" fill="white"/>
<path d="M154.585 39.45C152.548 39.45 150.803 39.1334 149.35 38.5001C147.913 37.851 146.808 36.9328 146.034 35.7455C145.277 34.5581 144.898 33.1333 144.898 31.471C144.898 29.7929 145.277 28.3601 146.034 27.1728C146.808 25.9854 147.913 25.0751 149.35 24.4419C150.803 23.7928 152.548 23.4683 154.585 23.4683C156.637 23.4683 158.382 23.7928 159.819 24.4419C161.256 25.0751 162.353 25.9854 163.111 27.1728C163.885 28.3601 164.272 29.7929 164.272 31.471C164.272 33.1333 163.885 34.5581 163.111 35.7455C162.353 36.9328 161.256 37.851 159.819 38.5001C158.382 39.1334 156.637 39.45 154.585 39.45ZM154.585 36.7191C155.848 36.7191 156.953 36.5291 157.901 36.1492C158.864 35.7692 159.614 35.1914 160.151 34.4156C160.703 33.6399 160.98 32.6584 160.98 31.471C160.98 30.2837 160.703 29.3021 160.151 28.5264C159.614 27.7506 158.864 27.1728 157.901 26.7928C156.953 26.3971 155.848 26.1992 154.585 26.1992C153.337 26.1992 152.224 26.3971 151.245 26.7928C150.266 27.1728 149.5 27.7506 148.948 28.5264C148.395 29.3021 148.119 30.2837 148.119 31.471C148.119 32.6584 148.395 33.6399 148.948 34.4156C149.5 35.1914 150.266 35.7692 151.245 36.1492C152.224 36.5291 153.337 36.7191 154.585 36.7191Z" fill="white"/>
<path d="M174.239 31.661L174.215 30.3311L184.542 39.1413H179.995L170.805 31.0673L178.976 23.777H183.452L174.239 31.661ZM167.678 23.777H170.828V39.1413H167.678V23.777Z" fill="white"/>
<path d="M195.737 35.793V33.157H205.874V35.793H195.737ZM191.924 39.1413L199.124 23.777H202.535L209.806 39.1413H206.372L200.071 25.2968H201.587L195.334 39.1413H191.924Z" fill="white"/>
<path d="M227.903 36.0067L226.908 36.4104V23.777H230.058V39.1413H226.908L214.521 27.0066L215.515 26.6029V39.1413H212.365V23.777H215.515L227.903 36.0067Z" fill="white"/>
<path d="M113.605 91.552C115.404 91.552 116.907 91.7661 118.112 92.1941C119.317 92.6222 120.275 93.2067 120.985 93.9476C121.711 94.6721 122.223 95.5118 122.52 96.4667C122.834 97.4216 122.991 98.426 122.991 99.4797C122.991 100.533 122.817 101.546 122.47 102.517C122.14 103.489 121.604 104.353 120.861 105.111C120.134 105.852 119.168 106.444 117.963 106.889C116.774 107.317 115.322 107.531 113.605 107.531H104.441V91.552H113.605ZM107.735 104.715H113.53C114.719 104.715 115.701 104.576 116.477 104.296C117.27 103.999 117.897 103.604 118.359 103.11C118.822 102.616 119.152 102.056 119.35 101.431C119.548 100.805 119.647 100.155 119.647 99.4797C119.647 98.8047 119.548 98.1626 119.35 97.5534C119.152 96.9442 118.822 96.4008 118.359 95.9234C117.897 95.4459 117.27 95.0672 116.477 94.7873C115.701 94.5074 114.719 94.3675 113.53 94.3675H107.735V104.715Z" fill="white"/>
<path d="M136.089 107.852C133.959 107.852 132.135 107.523 130.616 106.864C129.113 106.189 127.958 105.234 127.149 103.999C126.356 102.764 125.96 101.283 125.96 99.5538C125.96 97.8086 126.356 96.3185 127.149 95.0837C127.958 93.8488 129.113 92.9021 130.616 92.2435C132.135 91.5685 133.959 91.231 136.089 91.231C138.235 91.231 140.06 91.5685 141.562 92.2435C143.065 92.9021 144.212 93.8488 145.004 95.0837C145.813 96.3185 146.218 97.8086 146.218 99.5538C146.218 101.283 145.813 102.764 145.004 103.999C144.212 105.234 143.065 106.189 141.562 106.864C140.06 107.523 138.235 107.852 136.089 107.852ZM136.089 105.012C137.41 105.012 138.566 104.814 139.556 104.419C140.563 104.024 141.347 103.423 141.909 102.616C142.487 101.809 142.776 100.789 142.776 99.5538C142.776 98.319 142.487 97.2982 141.909 96.4914C141.347 95.6846 140.563 95.0837 139.556 94.6885C138.566 94.2769 137.41 94.0711 136.089 94.0711C134.785 94.0711 133.621 94.2769 132.597 94.6885C131.573 95.0837 130.773 95.6846 130.195 96.4914C129.617 97.2982 129.328 98.319 129.328 99.5538C129.328 100.789 129.617 101.809 130.195 102.616C130.773 103.423 131.573 104.024 132.597 104.419C133.621 104.814 134.785 105.012 136.089 105.012Z" fill="white"/>
<path d="M168.478 101.777C168.329 103.061 167.875 104.156 167.116 105.061C166.356 105.967 165.324 106.658 164.02 107.136C162.716 107.613 161.164 107.852 159.364 107.852C157.862 107.852 156.483 107.679 155.228 107.333C153.99 106.988 152.917 106.469 152.009 105.777C151.117 105.086 150.424 104.23 149.928 103.209C149.433 102.172 149.186 100.962 149.186 99.5785C149.186 98.1955 149.433 96.9853 149.928 95.9481C150.424 94.9108 151.117 94.0464 152.009 93.3549C152.917 92.6469 153.99 92.12 155.228 91.7743C156.483 91.4121 157.862 91.231 159.364 91.231C161.164 91.231 162.716 91.4779 164.02 91.9719C165.341 92.4658 166.381 93.1738 167.14 94.0958C167.9 95.0013 168.346 96.1045 168.478 97.4052H165.209C164.994 96.7137 164.631 96.1209 164.119 95.627C163.624 95.1166 162.98 94.7297 162.187 94.4662C161.395 94.2028 160.454 94.0711 159.364 94.0711C158.01 94.0711 156.821 94.2851 155.798 94.7132C154.774 95.1248 153.982 95.7423 153.42 96.5655C152.859 97.3723 152.578 98.3766 152.578 99.5785C152.578 100.764 152.859 101.76 153.42 102.567C153.982 103.374 154.774 103.991 155.798 104.419C156.821 104.831 158.01 105.037 159.364 105.037C160.454 105.037 161.387 104.905 162.162 104.641C162.955 104.378 163.599 103.999 164.094 103.505C164.606 103.011 164.977 102.435 165.209 101.777H168.478Z" fill="white"/>
<path d="M170.143 91.552H187.033V94.2934H170.143V91.552ZM176.953 93.9476H180.247V107.531H176.953V93.9476Z" fill="white"/>
<path d="M198.075 107.852C195.945 107.852 194.121 107.523 192.602 106.864C191.099 106.189 189.943 105.234 189.134 103.999C188.342 102.764 187.946 101.283 187.946 99.5538C187.946 97.8086 188.342 96.3185 189.134 95.0837C189.943 93.8488 191.099 92.9021 192.602 92.2435C194.121 91.5685 195.945 91.231 198.075 91.231C200.221 91.231 202.045 91.5685 203.548 92.2435C205.05 92.9021 206.198 93.8488 206.99 95.0837C207.799 96.3185 208.204 97.8086 208.204 99.5538C208.204 101.283 207.799 102.764 206.99 103.999C206.198 105.234 205.05 106.189 203.548 106.864C202.045 107.523 200.221 107.852 198.075 107.852ZM198.075 105.012C199.396 105.012 200.551 104.814 201.542 104.419C202.549 104.024 203.333 103.423 203.895 102.616C204.472 101.809 204.761 100.789 204.761 99.5538C204.761 98.319 204.472 97.2982 203.895 96.4914C203.333 95.6846 202.549 95.0837 201.542 94.6885C200.551 94.2769 199.396 94.0711 198.075 94.0711C196.77 94.0711 195.606 94.2769 194.583 94.6885C193.559 95.0837 192.758 95.6846 192.181 96.4914C191.603 97.2982 191.314 98.319 191.314 99.5538C191.314 100.789 191.603 101.809 192.181 102.616C192.758 103.423 193.559 104.024 194.583 104.419C195.606 104.814 196.77 105.012 198.075 105.012Z" fill="white"/>
<path d="M211.766 107.531V91.552H222.638C223.876 91.552 224.949 91.7249 225.857 92.0707C226.782 92.3999 227.5 92.9268 228.012 93.6513C228.523 94.3592 228.779 95.273 228.779 96.3926C228.779 97.15 228.647 97.7921 228.383 98.319C228.119 98.8458 227.747 99.2739 227.269 99.6032C226.806 99.9325 226.27 100.188 225.659 100.369C225.048 100.533 224.396 100.64 223.702 100.69L223.356 100.492C224.511 100.509 225.461 100.608 226.204 100.789C226.947 100.953 227.5 101.266 227.863 101.727C228.243 102.172 228.433 102.838 228.433 103.728V107.531H225.139V103.95C225.139 103.341 225.032 102.871 224.817 102.542C224.602 102.196 224.214 101.958 223.653 101.826C223.108 101.694 222.316 101.628 221.275 101.628H215.059V107.531H211.766ZM215.059 99.0599H222.638C223.562 99.0599 224.264 98.8376 224.743 98.3931C225.238 97.9485 225.486 97.3476 225.486 96.5902C225.486 95.8657 225.238 95.3142 224.743 94.9355C224.264 94.5568 223.562 94.3675 222.638 94.3675H215.059V99.0599Z" fill="white"/>
</svg>
