<svg width="388" height="315" viewBox="0 0 388 315" fill="none" xmlns="http://www.w3.org/2000/svg">
<g clip-path="url(#clip0_5165_24508)">
<path d="M193.9 314.5C300.988 314.5 387.8 309.441 387.8 303.2C387.8 296.959 300.988 291.9 193.9 291.9C86.812 291.9 0 296.959 0 303.2C0 309.441 86.812 314.5 193.9 314.5Z" fill="#F5F5F5"/>
<path d="M48.0355 89.3842L47.0381 89.4561L48.367 107.908L49.3644 107.836L48.0355 89.3842Z" fill="#3A4DDD"/>
<path d="M50.0511 117.369L49.0537 117.441L49.5567 124.423L50.5541 124.351L50.0511 117.369Z" fill="#3A4DDD"/>
<path d="M281.6 202.2H67.3999C62.5999 202.2 58.2999 198.2 57.9999 193.4L47.4999 47.1999C47.1999 42.3999 50.7999 38.3999 55.6999 38.3999H269.9C274.7 38.3999 279 42.3999 279.3 47.1999L289.8 193.3C290.1 198.2 286.4 202.2 281.6 202.2Z" fill="#3A4DDD"/>
<path d="M282.4 202.2H68.2997C63.4997 202.2 59.1997 198.2 58.8997 193.4L48.2997 47.1999C47.9997 42.3999 51.5997 38.3999 56.4997 38.3999H270.7C275.5 38.3999 279.8 42.3999 280.1 47.1999L290.6 193.3C290.9 198.2 287.3 202.2 282.4 202.2Z" fill="#3A4DDD"/>
<path opacity="0.5" d="M282.4 202.2H68.2997C63.4997 202.2 59.1997 198.2 58.8997 193.4L48.2997 47.1999C47.9997 42.3999 51.5997 38.3999 56.4997 38.3999H270.7C275.5 38.3999 279.8 42.3999 280.1 47.1999L290.6 193.3C290.9 198.2 287.3 202.2 282.4 202.2Z" fill="white"/>
<path d="M270.9 42.7998H56.8001C56.6001 42.7998 56.3001 42.7998 56.1001 42.7998C50.6001 43.2998 51.7001 51.5998 57.3001 51.5998H271.8C277.3 51.5998 277.2 43.2998 271.7 42.7998C271.4 42.7998 271.2 42.7998 270.9 42.7998Z" fill="#3A4DDD"/>
<path d="M62.3996 47.1997C62.4996 48.2997 61.5996 49.1997 60.4996 49.1997C59.3996 49.1997 58.3996 48.2997 58.2996 47.1997C58.1996 46.0997 59.0996 45.1997 60.1996 45.1997C61.2996 45.1997 62.2996 46.0997 62.3996 47.1997Z" fill="#FAFAFA"/>
<path d="M69.1994 47.1997C69.2994 48.2997 68.3994 49.1997 67.2994 49.1997C66.1994 49.1997 65.1994 48.2997 65.0994 47.1997C64.9994 46.0997 65.8994 45.1997 66.9994 45.1997C68.1994 45.1997 69.1994 46.0997 69.1994 47.1997Z" fill="#FAFAFA"/>
<path d="M76.0998 47.1997C76.1998 48.2997 75.2998 49.1997 74.1998 49.1997C73.0998 49.1997 72.0998 48.2997 71.9998 47.1997C71.8998 46.0997 72.7998 45.1997 73.8998 45.1997C75.0998 45.1997 75.9998 46.0997 76.0998 47.1997Z" fill="#FAFAFA"/>
<path d="M276.7 187.6H71.8003C70.0003 187.6 68.5003 186.2 68.4003 184.4L59.8003 64.2C59.7003 62.4 61.0003 61 62.8003 61H267.7C269.5 61 271 62.4 271.1 64.2L279.8 184.4C279.8 186.2 278.5 187.6 276.7 187.6Z" fill="white"/>
<path d="M190.399 141.8L187.099 95.4999L176.999 89.3999H149.199L152.899 141.8H190.399Z" fill="white"/>
<path d="M190.4 142.3H152.9C152.6 142.3 152.4 142.1 152.4 141.9L148.6 89.4999C148.6 89.3999 148.6 89.1999 148.7 89.0999C148.8 88.9999 148.9 88.8999 149.1 88.8999H177C177.1 88.8999 177.2 88.8999 177.3 88.9999L187.4 95.0999C187.5 95.1999 187.6 95.2999 187.6 95.4999L190.9 141.8C190.9 141.9 190.9 142.1 190.8 142.2C190.7 142.2 190.6 142.3 190.4 142.3ZM153.4 141.3H189.9L186.6 95.7999L176.8 89.8999H149.7L153.4 141.3Z" fill="#3A4DDD"/>
<path d="M187.1 95.4999L177 89.3999L180.7 97.4999L187.1 95.4999Z" fill="#EBEBEB"/>
<path d="M180.7 97.8997C180.5 97.8997 180.3 97.7997 180.3 97.5997L176.6 89.4997C176.5 89.2997 176.6 89.0997 176.7 88.8997C176.9 88.7997 177.1 88.6997 177.3 88.7997L187.4 94.8997C187.6 94.9997 187.7 95.1997 187.6 95.3997C187.6 95.5997 187.4 95.6997 187.3 95.7997L180.9 97.7997C180.8 97.8997 180.7 97.8997 180.7 97.8997ZM178.1 90.5997L181 96.7997L186 95.2997L178.1 90.5997Z" fill="#3A4DDD"/>
<path d="M164.899 113C164.999 114.2 164.099 115.1 162.899 115.1C161.699 115.1 160.699 114.2 160.599 113C160.499 111.8 161.399 110.9 162.599 110.9C163.799 110.9 164.799 111.8 164.899 113Z" fill="#3A4DDD"/>
<path d="M178.6 113C178.7 114.2 177.8 115.1 176.6 115.1C175.4 115.1 174.4 114.2 174.3 113C174.2 111.8 175.1 110.9 176.3 110.9C177.5 110.9 178.5 111.8 178.6 113Z" fill="#3A4DDD"/>
<path d="M182.5 126.7C182.2 126.7 182 126.5 182 126.3C181.8 122.9 176.4 120.1 170.1 120.1C165.9 120.1 162.2 121.3 160.3 123.3C159.5 124.2 159.1 125.2 159.2 126.2C159.2 126.5 159 126.7 158.8 126.7C158.5 126.7 158.3 126.5 158.3 126.3C158.2 125 158.7 123.8 159.7 122.7C161.7 120.5 165.8 119.1 170.2 119.1C177.1 119.1 182.8 122.2 183.1 126.2C183 126.5 182.8 126.7 182.5 126.7Z" fill="#3A4DDD"/>
<path d="M157.099 108.7C156.999 108.7 156.899 108.7 156.799 108.6C156.599 108.4 156.599 108.1 156.799 107.9L158.899 105.6C159.099 105.4 159.399 105.4 159.599 105.6C159.799 105.8 159.799 106.1 159.599 106.3L157.499 108.6C157.299 108.7 157.199 108.7 157.099 108.7Z" fill="#3A4DDD"/>
<path d="M181.5 108.7C181.4 108.7 181.3 108.7 181.2 108.6L178.7 106.3C178.5 106.1 178.5 105.8 178.7 105.6C178.9 105.4 179.2 105.4 179.4 105.6L181.9 107.9C182.1 108.1 182.1 108.4 181.9 108.6C181.7 108.7 181.6 108.7 181.5 108.7Z" fill="#3A4DDD"/>
<path d="M146.1 152.2H148.4L151.7 156.5L151.4 152.2H153.7L154.3 160H152L148.8 155.7L149.1 160H146.8L146.1 152.2Z" fill="#3A4DDD"/>
<path d="M155.199 156.1C155.099 154.8 155.399 153.8 156.099 153.1C156.799 152.4 157.699 152 158.999 152C160.299 152 161.299 152.3 162.099 153C162.899 153.7 163.299 154.7 163.399 155.9C163.499 156.8 163.399 157.6 163.099 158.2C162.799 158.8 162.399 159.2 161.899 159.6C161.299 159.9 160.599 160.1 159.799 160.1C158.899 160.1 158.199 160 157.599 159.7C156.999 159.4 156.499 159 156.099 158.4C155.499 157.8 155.299 157 155.199 156.1ZM157.599 156.1C157.699 156.9 157.799 157.5 158.199 157.8C158.499 158.1 158.899 158.3 159.399 158.3C159.899 158.3 160.299 158.1 160.599 157.8C160.899 157.5 160.999 156.9 160.899 156C160.799 155.3 160.699 154.7 160.299 154.4C159.999 154.1 159.599 153.9 159.099 153.9C158.599 153.9 158.199 154.1 157.999 154.4C157.699 154.7 157.599 155.3 157.599 156.1Z" fill="#3A4DDD"/>
<path d="M168 152.2H171.6C172.3 152.2 172.9 152.3 173.3 152.5C173.8 152.7 174.1 153 174.4 153.3C174.7 153.7 174.9 154.1 175.1 154.6C175.3 155.1 175.4 155.6 175.4 156.1C175.5 156.9 175.4 157.6 175.3 158C175.1 158.5 174.9 158.8 174.6 159.2C174.3 159.5 173.9 159.7 173.6 159.8C173.1 159.9 172.6 160 172.2 160H168.6L168 152.2ZM170.6 153.9L170.9 158.2H171.5C172 158.2 172.4 158.1 172.6 158C172.8 157.9 173 157.7 173.1 157.4C173.2 157.1 173.2 156.7 173.2 156C173.1 155.2 173 154.6 172.7 154.3C172.4 154 171.9 153.8 171.3 153.8H170.6V153.9Z" fill="#3A4DDD"/>
<path d="M181.3 158.7H178.6L178.3 160H175.8L178.2 152.2H180.8L184.3 160H181.8L181.3 158.7ZM180.7 157L179.6 154.2L179 157H180.7Z" fill="#3A4DDD"/>
<path d="M183.3 152.2H190.7L190.8 154.1H188.3L188.7 160H186.3L185.9 154.1H183.4L183.3 152.2Z" fill="#3A4DDD"/>
<path d="M196.3 158.7H193.6L193.3 160H190.8L193.2 152.2H195.8L199.3 160H196.8L196.3 158.7ZM195.6 157L194.5 154.2L193.8 157H195.6Z" fill="#3A4DDD"/>
</g>
<defs>
<clipPath id="clip0_5165_24508">
<rect width="387.8" height="314.6" fill="white"/>
</clipPath>
</defs>
</svg>
