<svg width="46" height="56" viewBox="0 0 46 56" fill="none" xmlns="http://www.w3.org/2000/svg">
<path d="M18.924 48.5291H2.31193C1.035 48.5291 0 47.4847 0 46.1972V2.33192C0 1.04115 1.03283 0 2.31193 0H24.112C24.5069 0 24.8682 0.181736 25.1047 0.477332L36.4789 11.6541C37.0908 12.2716 37.4141 12.7566 37.4141 12.9055L37.4119 27.7236C36.5884 27.3732 35.727 27.0973 34.8341 26.9036L34.8331 14.4645H24.112C23.3917 14.4645 22.8167 13.8722 22.8167 13.1562V2.59358H2.58208V45.9235H17.799C18.0919 46.8344 18.4694 47.7058 18.924 48.5291ZM31.7335 30.0161C34.8352 30.0161 37.6441 31.2849 39.6772 33.3366C41.7114 35.3882 42.9677 38.2227 42.9677 41.3538C42.9677 43.6441 42.295 45.7757 41.1375 47.5591L46 52.9072L42.6476 56L37.9576 50.7931C36.1762 51.9919 34.0357 52.6915 31.7335 52.6915C28.6307 52.6915 25.8218 51.4216 23.7898 49.3699C21.7556 47.3183 20.4982 44.4838 20.4982 41.3538C20.4982 38.2227 21.7556 35.3882 23.7887 33.3366C25.8218 31.2849 28.6307 30.0161 31.7335 30.0161ZM38.2017 34.8255C36.5472 33.1549 34.2602 32.1214 31.7335 32.1214C29.2067 32.1214 26.9198 33.1549 25.2653 34.8255C23.6097 36.4962 22.5856 38.804 22.5856 41.3538C22.5856 43.9025 23.6097 46.2114 25.2653 47.881C26.9198 49.5516 29.2067 50.584 31.7335 50.584C34.2602 50.584 36.5472 49.5516 38.2017 47.881C39.8573 46.2103 40.8814 43.9025 40.8814 41.3538C40.8814 38.804 39.8573 36.4962 38.2017 34.8255ZM34.2581 37.1673L35.8301 38.7624L33.2947 41.3538L35.8323 43.9474L34.2559 45.5337L31.7335 42.9566L29.2089 45.5381L27.6369 43.943L30.1712 41.3516L27.6347 38.758L29.2111 37.1717L31.7324 39.7488L34.2581 37.1673Z" fill="#3A4DDD"/>
</svg>
