<svg width="22" height="22" viewBox="0 0 22 22" fill="none" xmlns="http://www.w3.org/2000/svg">
<path d="M11 20C12.4202 20 13.5714 18.9926 13.5714 17.75H8.42857C8.42857 18.9926 9.57984 20 11 20Z" fill="#63697D"/>
<path d="M11 4.15803L9.97504 4.33916C7.62567 4.75433 5.85717 6.57271 5.85717 8.75C5.85717 9.4563 5.68442 11.2219 5.2672 12.9599C5.06008 13.8227 4.78298 14.7211 4.41469 15.5H17.5853C17.217 14.7211 16.9399 13.8227 16.7328 12.9599C16.3156 11.2219 16.1429 9.45629 16.1429 8.75C16.1429 6.57269 14.3744 4.7543 12.025 4.33915L11 4.15803ZM18.9962 15.5C19.2833 16.0033 19.6162 16.4011 20 16.625H2C2.38382 16.4011 2.71672 16.0033 3.00376 15.5C4.159 13.4743 4.57146 9.73906 4.57146 8.75C4.57146 6.02676 6.78312 3.7555 9.72051 3.23642C9.71639 3.19977 9.71429 3.1626 9.71429 3.125C9.71429 2.50368 10.2899 2 11 2C11.7101 2 12.2857 2.50368 12.2857 3.125C12.2857 3.1626 12.2836 3.19976 12.2795 3.23641C15.2169 3.75548 17.4286 6.02674 17.4286 8.75C17.4286 9.73906 17.841 13.4743 18.9962 15.5Z" fill="#63697D"/>
</svg>
