<svg width="23" height="22" viewBox="0 0 23 22" fill="none" xmlns="http://www.w3.org/2000/svg">
<path fill-rule="evenodd" clip-rule="evenodd" d="M6.11816 11V15.2895H10.4077V11H6.11816ZM9.33529 14.2171V12.0724H7.19054V14.2171H9.33529Z" fill="#5968D4"/>
<path fill-rule="evenodd" clip-rule="evenodd" d="M8.79954 1.34766C8.13561 1.34765 7.48793 1.55299 6.94529 1.93552C6.40264 2.31805 5.99158 2.85905 5.76847 3.48436H1.8291V4.81464L3.97385 6.43929V19.578H2.36529C2.22308 19.578 2.0867 19.6345 1.98615 19.7351C1.88559 19.8356 1.8291 19.972 1.8291 20.1142C1.8291 20.2564 1.88559 20.3928 1.98615 20.4934C2.0867 20.5939 2.22308 20.6504 2.36529 20.6504H3.97385V20.6584H18.9871V20.6504H20.5957C20.7379 20.6504 20.8742 20.5939 20.9748 20.4934C21.0754 20.3928 21.1318 20.2564 21.1318 20.1142C21.1318 19.972 21.0754 19.8356 20.9748 19.7351C20.8742 19.6345 20.7379 19.578 20.5957 19.578H18.9871V6.45859L21.3999 4.83395V3.48383H11.8306C11.6074 2.85861 11.1963 2.31773 10.6537 1.9353C10.111 1.55287 9.4634 1.34761 8.79954 1.34766ZM11.8338 5.63715C11.9553 5.29269 12.0171 4.93003 12.0167 4.56478V4.55674H19.8916L18.2874 5.63715H11.8338ZM11.1974 6.70953C10.8959 7.0473 10.5265 7.31746 10.1132 7.50229C9.69993 7.68711 9.25224 7.7824 8.79954 7.7819C8.34683 7.7824 7.89914 7.68711 7.48588 7.50229C7.07261 7.31746 6.70313 7.0473 6.40171 6.70953H5.04623V19.578H11.4805V10.999H16.8423V19.578H17.9147V6.70953H11.1974ZM5.58241 4.56478C5.58241 4.94065 5.64675 5.3015 5.76525 5.63715H4.6902L3.26394 4.55674H5.58241V4.56478ZM9.33572 4.02859V2.95622H8.26335V4.02859H7.19097V5.10097H8.26335V6.17334H9.33572V5.10097H10.4081V4.02859H9.33572ZM15.77 12.0714V19.578H12.5528V12.0714H15.77Z" fill="#5968D4"/>
</svg>
