<svg width="18" height="18" viewBox="0 0 18 18" fill="none" xmlns="http://www.w3.org/2000/svg">
<path fill-rule="evenodd" clip-rule="evenodd" d="M4.10742 8.99805V12.8976H8.00697V8.99805H4.10742ZM7.03208 11.9227V9.97293H5.08231V11.9227H7.03208Z" fill="#3A4DDD"/>
<path fill-rule="evenodd" clip-rule="evenodd" d="M6.54477 0.224609C5.9412 0.224603 5.3524 0.411272 4.85909 0.759028C4.36577 1.10678 3.99208 1.5986 3.78925 2.16707H0.208008V3.37642L2.15778 4.85337V16.7977H0.695451C0.566173 16.7977 0.44219 16.849 0.350777 16.9404C0.259363 17.0319 0.208008 17.1558 0.208008 17.2851C0.208008 17.4144 0.259363 17.5384 0.350777 17.6298C0.44219 17.7212 0.566173 17.7726 0.695451 17.7726H2.15778V17.7799H15.8062V17.7726H17.2685C17.3978 17.7726 17.5218 17.7212 17.6132 17.6298C17.7046 17.5384 17.756 17.4144 17.756 17.2851C17.756 17.1558 17.7046 17.0319 17.6132 16.9404C17.5218 16.849 17.3978 16.7977 17.2685 16.7977H15.8062V4.87092L17.9997 3.39396V2.16658H9.30028C9.09737 1.59821 8.72365 1.10649 8.23034 0.758829C7.73703 0.411165 7.14828 0.224567 6.54477 0.224609ZM9.30321 4.12415C9.41364 3.81101 9.46986 3.48132 9.46942 3.14927V3.14196H16.6285L15.1701 4.12415H9.30321ZM8.72461 5.09904C8.45059 5.4061 8.1147 5.65171 7.739 5.81973C7.36331 5.98775 6.95632 6.07438 6.54477 6.07393C6.13321 6.07438 5.72622 5.98775 5.35053 5.81973C4.97484 5.65171 4.63895 5.4061 4.36492 5.09904H3.13267V16.7977H8.98198V8.99858H13.8564V16.7977H14.8313V5.09904H8.72461ZM3.62011 3.14927C3.62011 3.49096 3.6786 3.81901 3.78633 4.12415H2.809L1.51241 3.14196H3.62011V3.14927ZM7.03221 2.66182V1.68694H6.05732V2.66182H5.08244V3.63671H6.05732V4.6116H7.03221V3.63671H8.0071V2.66182H7.03221ZM12.8815 9.97347V16.7977H9.95687V9.97347H12.8815Z" fill="#3A4DDD"/>
</svg>
