<svg width="20" height="20" viewBox="0 0 20 20" fill="none" xmlns="http://www.w3.org/2000/svg">
<g clip-path="url(#clip0_3219_34886)">
<path d="M8.3335 5.83333H11.6668M1.25016 12.0833C1.25016 12.0833 4.5835 4.16667 5.00016 3.33333C5.41683 2.5 6.25016 2.5 6.66683 2.5C7.0835 2.5 8.3335 2.5 8.3335 4.16667V13.3333H11.6668V4.16667C11.6668 2.5 12.9168 2.5 13.3335 2.5C13.7502 2.5 14.5835 2.5 15.0002 3.33333C15.4168 4.16667 18.7502 12.0833 18.7502 12.0833M15.4168 17.5C15.9093 17.5 16.3969 17.403 16.8519 17.2145C17.3069 17.0261 17.7203 16.7499 18.0685 16.4016C18.4167 16.0534 18.6929 15.64 18.8814 15.1851C19.0698 14.7301 19.1668 14.2425 19.1668 13.75C19.1668 13.2575 19.0698 12.7699 18.8814 12.3149C18.6929 11.86 18.4167 11.4466 18.0685 11.0983C17.7203 10.7501 17.3069 10.4739 16.8519 10.2855C16.3969 10.097 15.9093 10 15.4168 10C14.4223 10 13.4684 10.3951 12.7652 11.0983C12.0619 11.8016 11.6668 12.7554 11.6668 13.75C11.6668 14.7446 12.0619 15.6984 12.7652 16.4016C13.4684 17.1049 14.4223 17.5 15.4168 17.5ZM4.5835 17.5C4.09104 17.5 3.6034 17.403 3.14843 17.2145C2.69346 17.0261 2.28007 16.7499 1.93185 16.4016C1.58363 16.0534 1.3074 15.64 1.11895 15.1851C0.930493 14.7301 0.833496 14.2425 0.833496 13.75C0.833496 13.2575 0.930493 12.7699 1.11895 12.3149C1.3074 11.86 1.58363 11.4466 1.93185 11.0983C2.28007 10.7501 2.69346 10.4739 3.14843 10.2855C3.6034 10.097 4.09104 10 4.5835 10C5.57806 10 6.53189 10.3951 7.23515 11.0983C7.93841 11.8016 8.3335 12.7554 8.3335 13.75C8.3335 14.7446 7.93841 15.6984 7.23515 16.4016C6.53189 17.1049 5.57806 17.5 4.5835 17.5Z" stroke="#3A4DDD" stroke-width="2"/>
</g>
<defs>
<clipPath id="clip0_3219_34886">
<rect width="20" height="20" fill="white"/>
</clipPath>
</defs>
</svg>
