<svg width="23" height="22" viewBox="0 0 23 22" fill="none" xmlns="http://www.w3.org/2000/svg">
<g clip-path="url(#clip0_5526_23438)">
<path d="M9.66699 6.41667H13.3337M1.87533 13.2917C1.87533 13.2917 5.54199 4.58333 6.00033 3.66667C6.45866 2.75 7.37533 2.75 7.83366 2.75C8.29199 2.75 9.66699 2.75 9.66699 4.58333V14.6667H13.3337V4.58333C13.3337 2.75 14.7087 2.75 15.167 2.75C15.6253 2.75 16.542 2.75 17.0003 3.66667C17.4587 4.58333 21.1253 13.2917 21.1253 13.2917M17.4587 19.25C18.0004 19.25 18.5368 19.1433 19.0372 18.936C19.5377 18.7287 19.9924 18.4249 20.3755 18.0418C20.7585 17.6588 21.0624 17.204 21.2697 16.7036C21.477 16.2031 21.5837 15.6667 21.5837 15.125C21.5837 14.5833 21.477 14.0469 21.2697 13.5464C21.0624 13.046 20.7585 12.5912 20.3755 12.2082C19.9924 11.8251 19.5377 11.5213 19.0372 11.314C18.5368 11.1067 18.0004 11 17.4587 11C16.3646 11 15.3154 11.4346 14.5418 12.2082C13.7683 12.9818 13.3337 14.031 13.3337 15.125C13.3337 16.219 13.7683 17.2682 14.5418 18.0418C15.3154 18.8154 16.3646 19.25 17.4587 19.25ZM5.54199 19.25C5.00029 19.25 4.46389 19.1433 3.96342 18.936C3.46296 18.7287 3.00822 18.4249 2.62518 18.0418C2.24214 17.6588 1.93829 17.204 1.73099 16.7036C1.52369 16.2031 1.41699 15.6667 1.41699 15.125C1.41699 14.5833 1.52369 14.0469 1.73099 13.5464C1.93829 13.046 2.24214 12.5912 2.62518 12.2082C3.00822 11.8251 3.46296 11.5213 3.96342 11.314C4.46389 11.1067 5.00029 11 5.54199 11C6.63601 11 7.68522 11.4346 8.45881 12.2082C9.2324 12.9818 9.66699 14.031 9.66699 15.125C9.66699 16.219 9.2324 17.2682 8.45881 18.0418C7.68522 18.8154 6.63601 19.25 5.54199 19.25Z" stroke="#5968D4" stroke-width="2"/>
</g>
<defs>
<clipPath id="clip0_5526_23438">
<rect width="22" height="22" fill="white" transform="translate(0.5)"/>
</clipPath>
</defs>
</svg>
