<svg width="18" height="22" viewBox="0 0 18 22" fill="none" xmlns="http://www.w3.org/2000/svg">
<path d="M4.5 5.95678C4.08579 5.95678 3.75 6.23902 3.75 6.58718C3.75 6.93535 4.08579 7.21759 4.5 7.21759H13.5C13.9142 7.21759 14.25 6.93535 14.25 6.58718C14.25 6.23902 13.9142 5.95678 13.5 5.95678H4.5Z" fill="#5968D4"/>
<path d="M3.75 9.10879C3.75 8.76063 4.08579 8.47839 4.5 8.47839H13.5C13.9142 8.47839 14.25 8.76063 14.25 9.10879C14.25 9.45695 13.9142 9.73919 13.5 9.73919H4.5C4.08579 9.73919 3.75 9.45695 3.75 9.10879Z" fill="#5968D4"/>
<path d="M4.5 11C4.08579 11 3.75 11.2822 3.75 11.6304C3.75 11.9786 4.08579 12.2608 4.5 12.2608H13.5C13.9142 12.2608 14.25 11.9786 14.25 11.6304C14.25 11.2822 13.9142 11 13.5 11H4.5Z" fill="#5968D4"/>
<path d="M4.5 13.5216C4.08579 13.5216 3.75 13.8038 3.75 14.152C3.75 14.5002 4.08579 14.7824 4.5 14.7824H9C9.41421 14.7824 9.75 14.5002 9.75 14.152C9.75 13.8038 9.41421 13.5216 9 13.5216H4.5Z" fill="#5968D4"/>
<path d="M0 3.43518C0 2.04253 1.34315 0.913574 3 0.913574H15C16.6569 0.913574 18 2.04253 18 3.43518V18.5648C18 19.9575 16.6569 21.0864 15 21.0864H3C1.34315 21.0864 0 19.9575 0 18.5648V3.43518ZM15 2.17438H3C2.17157 2.17438 1.5 2.73886 1.5 3.43518V18.5648C1.5 19.2611 2.17157 19.8256 3 19.8256H15C15.8284 19.8256 16.5 19.2611 16.5 18.5648V3.43518C16.5 2.73886 15.8284 2.17438 15 2.17438Z" fill="#5968D4"/>
</svg>
