<svg width="18" height="15" viewBox="0 0 18 15" fill="none" xmlns="http://www.w3.org/2000/svg">
<path d="M15.75 4.16917V12.9707C15.75 13.9941 14.7426 14.8237 13.5 14.8237H4.5C3.25736 14.8237 2.25 13.9941 2.25 12.9707V1.85296C2.25 0.829599 3.25736 0 4.5 0H10.6875L15.75 4.16917ZM12.375 4.16917C11.443 4.16917 10.6875 3.54697 10.6875 2.77944V0.926481H4.5C3.87868 0.926481 3.375 1.34128 3.375 1.85296V12.9707C3.375 13.4824 3.87868 13.8972 4.5 13.8972H13.5C14.1213 13.8972 14.625 13.4824 14.625 12.9707V4.16917H12.375Z" fill="#3A4DDD"/>
<path d="M4.5 6.02213C4.5 5.76629 4.75184 5.55889 5.0625 5.55889H12.9375C13.2482 5.55889 13.5 5.76629 13.5 6.02213V12.5075C13.5 12.7633 13.2482 12.9707 12.9375 12.9707H5.0625C4.75184 12.9707 4.5 12.7633 4.5 12.5075V6.02213Z" fill="#3A4DDD"/>
<path d="M4.5 3.24268C4.5 2.98684 4.75184 2.77944 5.0625 2.77944H7.875C8.18566 2.77944 8.4375 2.98684 8.4375 3.24268C8.4375 3.49852 8.18566 3.70592 7.875 3.70592H5.0625C4.75184 3.70592 4.5 3.49852 4.5 3.24268Z" fill="#3A4DDD"/>
</svg>
