<svg width="22" height="18" viewBox="0 0 22 18" fill="none" xmlns="http://www.w3.org/2000/svg">
<path d="M15.125 5.5625C15.125 5.1828 15.4328 4.875 15.8125 4.875H18.5625C18.9422 4.875 19.25 5.1828 19.25 5.5625V6.9375C19.25 7.3172 18.9422 7.625 18.5625 7.625H15.8125C15.4328 7.625 15.125 7.3172 15.125 6.9375V5.5625Z" fill="#5968D4"/>
<path d="M2.75 0.75C1.23122 0.75 0 1.98122 0 3.5V14.5C0 16.0188 1.23122 17.25 2.75 17.25H19.25C20.7688 17.25 22 16.0188 22 14.5V3.5C22 1.98122 20.7688 0.75 19.25 0.75H2.75ZM20.625 3.5V10.375H1.375V3.5C1.375 2.74061 1.99061 2.125 2.75 2.125H19.25C20.0094 2.125 20.625 2.74061 20.625 3.5ZM19.25 15.875H2.75C1.99061 15.875 1.375 15.2594 1.375 14.5V13.125H20.625V14.5C20.625 15.2594 20.0094 15.875 19.25 15.875Z" fill="#5968D4"/>
</svg>
