<svg width="20" height="20" viewBox="0 0 20 20" fill="none" xmlns="http://www.w3.org/2000/svg">
<path d="M0 5.61922C0 4.28269 1.08347 3.19922 2.42 3.19922H16.94C18.2765 3.19922 19.36 4.28269 19.36 5.61922V15.2992C19.36 16.6357 18.2765 17.7192 16.94 17.7192H2.42C1.08347 17.7192 0 16.6357 0 15.2992V5.61922ZM10.89 7.43422C10.89 7.76835 11.1609 8.03922 11.495 8.03922H16.335C16.6691 8.03922 16.94 7.76835 16.94 7.43422C16.94 7.10009 16.6691 6.82922 16.335 6.82922H11.495C11.1609 6.82922 10.89 7.10009 10.89 7.43422ZM10.89 10.4592C10.89 10.7934 11.1609 11.0642 11.495 11.0642H16.335C16.6691 11.0642 16.94 10.7934 16.94 10.4592C16.94 10.1251 16.6691 9.85422 16.335 9.85422H11.495C11.1609 9.85422 10.89 10.1251 10.89 10.4592ZM12.1 13.4842C12.1 13.8183 12.3709 14.0892 12.705 14.0892H16.335C16.6691 14.0892 16.94 13.8183 16.94 13.4842C16.94 13.1501 16.6691 12.8792 16.335 12.8792H12.705C12.3709 12.8792 12.1 13.1501 12.1 13.4842ZM10.89 15.9042C10.89 13.5653 8.72304 11.6692 6.04998 11.6692C3.52554 11.6692 1.45251 13.3603 1.22979 15.5184C1.33294 16.0821 1.82658 16.5092 2.41998 16.5092H10.841C10.8733 16.3116 10.89 16.1096 10.89 15.9042ZM8.46998 8.03922C8.46998 6.70269 7.38651 5.61922 6.04998 5.61922C4.71345 5.61922 3.62998 6.70269 3.62998 8.03922C3.62998 9.37575 4.71345 10.4592 6.04998 10.4592C7.38651 10.4592 8.46998 9.37575 8.46998 8.03922Z" fill="#3A4DDD"/>
</svg>
