<svg width="22" height="22" viewBox="0 0 22 22" fill="none" xmlns="http://www.w3.org/2000/svg">
<path d="M14.75 8.375C14.75 8.02982 15.0298 7.75 15.375 7.75H17.875C18.2202 7.75 18.5 8.02982 18.5 8.375V9.625C18.5 9.97018 18.2202 10.25 17.875 10.25H15.375C15.0298 10.25 14.75 9.97018 14.75 9.625V8.375Z" fill="#63697D"/>
<path d="M3.5 4C2.11929 4 1 5.11929 1 6.5V16.5C1 17.8807 2.11929 19 3.5 19H18.5C19.8807 19 21 17.8807 21 16.5V6.5C21 5.11929 19.8807 4 18.5 4H3.5ZM19.75 6.5V12.75H2.25V6.5C2.25 5.80964 2.80964 5.25 3.5 5.25H18.5C19.1904 5.25 19.75 5.80964 19.75 6.5ZM18.5 17.75H3.5C2.80964 17.75 2.25 17.1904 2.25 16.5V15.25H19.75V16.5C19.75 17.1904 19.1904 17.75 18.5 17.75Z" fill="#63697D"/>
</svg>
