<svg width="18" height="14" viewBox="0 0 18 14" fill="none" xmlns="http://www.w3.org/2000/svg">
<path d="M12.375 4.4375C12.375 4.12684 12.6268 3.875 12.9375 3.875H15.1875C15.4982 3.875 15.75 4.12684 15.75 4.4375V5.5625C15.75 5.87316 15.4982 6.125 15.1875 6.125H12.9375C12.6268 6.125 12.375 5.87316 12.375 5.5625V4.4375Z" fill="#3A4DDD"/>
<path d="M2.25 0.5C1.00736 0.5 0 1.50736 0 2.75V11.75C0 12.9926 1.00736 14 2.25 14H15.75C16.9926 14 18 12.9926 18 11.75V2.75C18 1.50736 16.9926 0.5 15.75 0.5H2.25ZM16.875 2.75V8.375H1.125V2.75C1.125 2.12868 1.62868 1.625 2.25 1.625H15.75C16.3713 1.625 16.875 2.12868 16.875 2.75ZM15.75 12.875H2.25C1.62868 12.875 1.125 12.3713 1.125 11.75V10.625H16.875V11.75C16.875 12.3713 16.3713 12.875 15.75 12.875Z" fill="#3A4DDD"/>
</svg>
