<svg width="22" height="22" viewBox="0 0 22 22" fill="none" xmlns="http://www.w3.org/2000/svg">
<path d="M11 11.0241C13.4853 11.0241 15.5 9.22788 15.5 7.01207C15.5 4.79627 13.4853 3 11 3C8.51472 3 6.5 4.79627 6.5 7.01207C6.5 9.22788 8.51472 11.0241 11 11.0241ZM14 7.01207C14 8.48928 12.6569 9.68679 11 9.68679C9.34315 9.68679 8 8.48928 8 7.01207C8 5.53487 9.34315 4.33736 11 4.33736C12.6569 4.33736 14 5.53487 14 7.01207Z" fill="#63697D"/>
<path d="M20 17.7109C20 19.0483 18.5 19.0483 18.5 19.0483H3.5C3.5 19.0483 2 19.0483 2 17.7109C2 16.3736 3.5 12.3615 11 12.3615C18.5 12.3615 20 16.3736 20 17.7109ZM18.5 17.7063C18.4978 17.3762 18.2693 16.3875 17.2518 15.4804C16.2734 14.6081 14.4336 13.6989 11 13.6989C7.56632 13.6989 5.72653 14.6081 4.74815 15.4804C3.73063 16.3875 3.50214 17.3762 3.5 17.7063H18.5Z" fill="#63697D"/>
</svg>
