<svg width="16" height="15" viewBox="0 0 16 15" fill="none" xmlns="http://www.w3.org/2000/svg">
<path d="M8 7.13257C10.2091 7.13257 12 5.53589 12 3.56629C12 1.59668 10.2091 0 8 0C5.79086 0 4 1.59668 4 3.56629C4 5.53589 5.79086 7.13257 8 7.13257ZM10.6667 3.56629C10.6667 4.87936 9.47276 5.94381 8 5.94381C6.52724 5.94381 5.33333 4.87936 5.33333 3.56629C5.33333 2.25322 6.52724 1.18876 8 1.18876C9.47276 1.18876 10.6667 2.25322 10.6667 3.56629Z" fill="#3A4DDD"/>
<path d="M16 13.0764C16 14.2651 14.6667 14.2651 14.6667 14.2651H1.33333C1.33333 14.2651 0 14.2651 0 13.0764C0 11.8876 1.33333 8.32133 8 8.32133C14.6667 8.32133 16 11.8876 16 13.0764ZM14.6666 13.0722C14.6647 12.7789 14.4616 11.9 13.5572 11.0937C12.6875 10.3183 11.0521 9.5101 7.99999 9.5101C4.94784 9.5101 3.31247 10.3183 2.4428 11.0937C1.53834 11.9 1.33523 12.7789 1.33333 13.0722H14.6666Z" fill="#3A4DDD"/>
</svg>
