<svg width="22" height="22" viewBox="0 0 22 22" fill="none" xmlns="http://www.w3.org/2000/svg">
<path d="M11 18.875C6.65076 18.875 3.125 15.3492 3.125 11C3.125 6.65076 6.65076 3.125 11 3.125C15.3492 3.125 18.875 6.65076 18.875 11C18.875 15.3492 15.3492 18.875 11 18.875ZM11 20C15.9706 20 20 15.9706 20 11C20 6.02944 15.9706 2 11 2C6.02944 2 2 6.02944 2 11C2 15.9706 6.02944 20 11 20Z" fill="#63697D"/>
<path d="M7.912 8.50941C7.90346 8.66266 8.02989 8.7868 8.18338 8.7868H9.11092C9.26625 8.7868 9.38976 8.66015 9.41063 8.50622C9.5107 7.76808 10.0173 7.23004 10.9204 7.23004C11.6916 7.23004 12.3986 7.61566 12.3986 8.54401C12.3986 9.25812 11.9773 9.58661 11.3131 10.0865C10.5562 10.6364 9.95632 11.2791 9.99917 12.3217L10.0025 12.5656C10.0046 12.7194 10.1299 12.843 10.2837 12.843H11.1961C11.3515 12.843 11.4774 12.717 11.4774 12.5617V12.4431C11.4774 11.6361 11.7844 11.4005 12.6128 10.772C13.2984 10.2507 14.0125 9.6723 14.0125 8.45831C14.0125 6.75873 12.5771 5.9375 11.0061 5.9375C9.5806 5.9375 8.01834 6.60194 7.912 8.50941ZM9.66354 14.9924C9.66354 15.5923 10.142 16.035 10.799 16.035C11.4845 16.035 11.9558 15.5923 11.9558 14.9924C11.9558 14.3712 11.4845 13.9355 10.799 13.9355C10.142 13.9355 9.66354 14.3712 9.66354 14.9924Z" fill="#63697D"/>
</svg>
