<svg width="22" height="22" viewBox="0 0 22 22" fill="none" xmlns="http://www.w3.org/2000/svg">
<path d="M15.2803 10.8169C15.5732 10.5729 15.5732 10.1771 15.2803 9.93306C14.9874 9.68898 14.5126 9.68898 14.2197 9.93306L10.25 13.2411L8.53033 11.8081C8.23744 11.564 7.76256 11.564 7.46967 11.8081C7.17678 12.0521 7.17678 12.4479 7.46967 12.6919L9.71967 14.5669C9.86032 14.6842 10.0511 14.75 10.25 14.75C10.4489 14.75 10.6397 14.6842 10.7803 14.5669L15.2803 10.8169Z" fill="#63697D"/>
<path d="M20 18.5V6.625L13.25 1H5C3.34315 1 2 2.11929 2 3.5V18.5C2 19.8807 3.34315 21 5 21H17C18.6569 21 20 19.8807 20 18.5ZM13.25 4.75C13.25 5.78553 14.2574 6.625 15.5 6.625H18.5V18.5C18.5 19.1904 17.8284 19.75 17 19.75H5C4.17157 19.75 3.5 19.1904 3.5 18.5V3.5C3.5 2.80964 4.17157 2.25 5 2.25H13.25V4.75Z" fill="#63697D"/>
</svg>
