<svg width="22" height="22" viewBox="0 0 22 22" fill="none" xmlns="http://www.w3.org/2000/svg">
<path d="M7.05 6.75C6.67721 6.75 6.375 7.01583 6.375 7.34375C6.375 7.67167 6.67721 7.9375 7.05 7.9375H15.15C15.5228 7.9375 15.825 7.67167 15.825 7.34375C15.825 7.01583 15.5228 6.75 15.15 6.75H7.05Z" fill="#63697D"/>
<path d="M6.375 9.71875C6.375 9.39083 6.67721 9.125 7.05 9.125H15.15C15.5228 9.125 15.825 9.39083 15.825 9.71875C15.825 10.0467 15.5228 10.3125 15.15 10.3125H7.05C6.67721 10.3125 6.375 10.0467 6.375 9.71875Z" fill="#63697D"/>
<path d="M7.05 11.5C6.67721 11.5 6.375 11.7658 6.375 12.0938C6.375 12.4217 6.67721 12.6875 7.05 12.6875H15.15C15.5228 12.6875 15.825 12.4217 15.825 12.0938C15.825 11.7658 15.5228 11.5 15.15 11.5H7.05Z" fill="#63697D"/>
<path d="M7.05 13.875C6.67721 13.875 6.375 14.1408 6.375 14.4688C6.375 14.7967 6.67721 15.0625 7.05 15.0625H11.1C11.4728 15.0625 11.775 14.7967 11.775 14.4688C11.775 14.1408 11.4728 13.875 11.1 13.875H7.05Z" fill="#63697D"/>
<path d="M3 4.375C3 3.06332 4.20883 2 5.7 2H16.5C17.9912 2 19.2 3.06332 19.2 4.375V18.625C19.2 19.9367 17.9912 21 16.5 21H5.7C4.20883 21 3 19.9367 3 18.625V4.375ZM16.5 3.1875H5.7C4.95442 3.1875 4.35 3.71916 4.35 4.375V18.625C4.35 19.2808 4.95442 19.8125 5.7 19.8125H16.5C17.2456 19.8125 17.85 19.2808 17.85 18.625V4.375C17.85 3.71916 17.2456 3.1875 16.5 3.1875Z" fill="#63697D"/>
</svg>
