<svg width="15" height="17" viewBox="0 0 15 17" fill="none" xmlns="http://www.w3.org/2000/svg">
<path d="M3.6 4.22222C3.26863 4.22222 3 4.45852 3 4.75C3 5.04148 3.26863 5.27778 3.6 5.27778H10.8C11.1314 5.27778 11.4 5.04148 11.4 4.75C11.4 4.45852 11.1314 4.22222 10.8 4.22222H3.6Z" fill="#3A4DDD"/>
<path d="M3 6.86111C3 6.56963 3.26863 6.33333 3.6 6.33333H10.8C11.1314 6.33333 11.4 6.56963 11.4 6.86111C11.4 7.15259 11.1314 7.38889 10.8 7.38889H3.6C3.26863 7.38889 3 7.15259 3 6.86111Z" fill="#3A4DDD"/>
<path d="M3.6 8.44444C3.26863 8.44444 3 8.68074 3 8.97222C3 9.26371 3.26863 9.5 3.6 9.5H10.8C11.1314 9.5 11.4 9.26371 11.4 8.97222C11.4 8.68074 11.1314 8.44444 10.8 8.44444H3.6Z" fill="#3A4DDD"/>
<path d="M3.6 10.5556C3.26863 10.5556 3 10.7919 3 11.0833C3 11.3748 3.26863 11.6111 3.6 11.6111H7.2C7.53137 11.6111 7.8 11.3748 7.8 11.0833C7.8 10.7919 7.53137 10.5556 7.2 10.5556H3.6Z" fill="#3A4DDD"/>
<path d="M0 2.11111C0 0.945176 1.07452 0 2.4 0H12C13.3255 0 14.4 0.945176 14.4 2.11111V14.7778C14.4 15.9437 13.3255 16.8889 12 16.8889H2.4C1.07452 16.8889 0 15.9437 0 14.7778V2.11111ZM12 1.05556H2.4C1.73726 1.05556 1.2 1.52814 1.2 2.11111V14.7778C1.2 15.3607 1.73726 15.8333 2.4 15.8333H12C12.6627 15.8333 13.2 15.3607 13.2 14.7778V2.11111C13.2 1.52814 12.6627 1.05556 12 1.05556Z" fill="#3A4DDD"/>
</svg>
