<svg width="12" height="21" viewBox="0 0 12 21" fill="none" xmlns="http://www.w3.org/2000/svg">
<g clip-path="url(#clip0_7374_32262)">
<path d="M0.458879 0.449035C0.165059 0.73664 0 1.12666 0 1.53333C0 1.94001 0.165059 2.33003 0.458879 2.61763L8.21692 10.2093L0.458879 17.8009C0.173386 18.0901 0.0154129 18.4775 0.0189838 18.8797C0.0225548 19.2818 0.187384 19.6665 0.47797 19.9508C0.768557 20.2352 1.16165 20.3964 1.57259 20.3999C1.98352 20.4034 2.37942 20.2489 2.67501 19.9695L11.5411 11.2936C11.8349 11.006 12 10.6159 12 10.2093C12 9.80259 11.8349 9.41257 11.5411 9.12496L2.67501 0.449035C2.3811 0.161518 1.98253 0 1.56695 0C1.15136 0 0.752787 0.161518 0.458879 0.449035Z" fill="#3A4DDD"/>
</g>
<defs>
<clipPath id="clip0_7374_32262">
<rect width="21" height="12" fill="white" transform="matrix(0 1 -1 0 12 0)"/>
</clipPath>
</defs>
</svg>
