<svg width="18" height="18" viewBox="0 0 18 18" fill="none" xmlns="http://www.w3.org/2000/svg">
<path d="M15.8634 5.74455C15.6477 5.52418 15.3552 5.40039 15.0502 5.40039C14.7452 5.40039 14.4527 5.52418 14.237 5.74455L8.54325 11.5631L2.84953 5.74455C2.63259 5.53043 2.34204 5.41195 2.04045 5.41463C1.73885 5.41731 1.45036 5.54093 1.23709 5.75887C1.02383 5.97681 0.90286 6.27163 0.900239 6.57983C0.897618 6.88803 1.01356 7.18496 1.22308 7.40665L7.73003 14.0562C7.94573 14.2766 8.23825 14.4004 8.54325 14.4004C8.84825 14.4004 9.14077 14.2766 9.35647 14.0562L15.8634 7.40665C16.0791 7.18622 16.2002 6.88729 16.2002 6.5756C16.2002 6.26391 16.0791 5.96498 15.8634 5.74455Z" fill="#63697D"/>
</svg>
