<svg width="18" height="18" viewBox="0 0 18 18" fill="none" xmlns="http://www.w3.org/2000/svg">
<path d="M15.8634 12.2555C15.6477 12.4758 15.3552 12.5996 15.0502 12.5996C14.7452 12.5996 14.4527 12.4758 14.237 12.2555L8.54325 6.43692L2.84953 12.2555C2.63259 12.4696 2.34204 12.588 2.04045 12.5854C1.73885 12.5827 1.45036 12.4591 1.23709 12.2411C1.02383 12.0232 0.90286 11.7284 0.900239 11.4202C0.897618 11.112 1.01356 10.815 1.22308 10.5933L7.73003 3.94377C7.94573 3.7234 8.23825 3.59961 8.54325 3.59961C8.84825 3.59961 9.14077 3.7234 9.35647 3.94377L15.8634 10.5933C16.0791 10.8138 16.2002 11.1127 16.2002 11.4244C16.2002 11.7361 16.0791 12.035 15.8634 12.2555Z" fill="#63697D"/>
</svg>
