<svg width="22" height="22" viewBox="0 0 22 22" fill="none" xmlns="http://www.w3.org/2000/svg">
<path fill-rule="evenodd" clip-rule="evenodd" d="M5.85156 10.875V14.8933H9.86983V10.875H5.85156ZM8.86526 13.8887V11.8796H6.85613V13.8887H8.86526Z" fill="#63697D"/>
<path fill-rule="evenodd" clip-rule="evenodd" d="M8.36366 1.83203C7.74172 1.83202 7.135 2.02438 6.62666 2.38272C6.11833 2.74106 5.73327 3.24786 5.52426 3.83363H1.83398V5.07979L3.84312 6.60171V18.9097H2.33627C2.20305 18.9097 2.0753 18.9626 1.9811 19.0568C1.8869 19.151 1.83398 19.2787 1.83398 19.4119C1.83398 19.5452 1.8869 19.6729 1.9811 19.7671C2.0753 19.8613 2.20305 19.9142 2.33627 19.9142H3.84312V19.9218H17.907V19.9142H19.4139C19.5471 19.9142 19.6749 19.8613 19.7691 19.7671C19.8633 19.6729 19.9162 19.5452 19.9162 19.4119C19.9162 19.2787 19.8633 19.151 19.7691 19.0568C19.6749 18.9626 19.5471 18.9097 19.4139 18.9097H17.907V6.61979L20.1673 5.09788V3.83313H11.2031C10.994 3.24745 10.6089 2.74076 10.1006 2.38251C9.59223 2.02427 8.98555 1.83199 8.36366 1.83203ZM11.2061 5.8503C11.3199 5.52762 11.3778 5.18789 11.3774 4.84573V4.8382H18.7544L17.2516 5.8503H11.2061ZM10.6099 6.85486C10.3275 7.17127 9.98139 7.42436 9.59426 7.59749C9.20713 7.77063 8.78775 7.85989 8.36366 7.85943C7.93958 7.85989 7.5202 7.77063 7.13307 7.59749C6.74594 7.42436 6.39982 7.17127 6.11745 6.85486H4.84768V18.9097H10.8751V10.8731H15.8979V18.9097H16.9025V6.85486H10.6099ZM5.34997 4.84573C5.34997 5.19783 5.41024 5.53587 5.52124 5.8503H4.51417L3.17809 4.8382H5.34997V4.84573ZM8.86595 4.34345V3.33888H7.86138V4.34345H6.85682V5.34801H7.86138V6.35258H8.86595V5.34801H9.87051V4.34345H8.86595ZM14.8933 11.8777V18.9097H11.8796V11.8777H14.8933Z" fill="#63697D"/>
</svg>
