<svg width="24" height="24" viewBox="0 0 24 24" fill="none" xmlns="http://www.w3.org/2000/svg">
<path d="M5.4 20.8828L22.85 13.4028C23.0304 13.326 23.1842 13.1978 23.2923 13.0342C23.4004 12.8706 23.4581 12.6789 23.4581 12.4828C23.4581 12.2867 23.4004 12.095 23.2923 11.9314C23.1842 11.7678 23.0304 11.6397 22.85 11.5628L5.4 4.08281C5.2489 4.01691 5.08377 3.98966 4.91951 4.00352C4.75525 4.01738 4.59702 4.07191 4.4591 4.16221C4.32118 4.2525 4.20791 4.37571 4.1295 4.52071C4.0511 4.66572 4.01003 4.82797 4.01 4.99281L4 9.60281C4 10.1028 4.37 10.5328 4.87 10.5928L19 12.4828L4.87 14.3628C4.37 14.4328 4 14.8628 4 15.3628L4.01 19.9728C4.01 20.6828 4.74 21.1728 5.4 20.8828Z" fill="white"/>
</svg>
