<svg width="22" height="22" viewBox="0 0 22 22" fill="none" xmlns="http://www.w3.org/2000/svg">
<path d="M11 11C13.4853 11 15.5 8.98528 15.5 6.5C15.5 4.01472 13.4853 2 11 2C8.51472 2 6.5 4.01472 6.5 6.5C6.5 8.98528 8.51472 11 11 11ZM14 6.5C14 8.15685 12.6569 9.5 11 9.5C9.34315 9.5 8 8.15685 8 6.5C8 4.84315 9.34315 3.5 11 3.5C12.6569 3.5 14 4.84315 14 6.5Z" fill="#63697D"/>
<path d="M20 18.5C20 20 18.5 20 18.5 20H3.5C3.5 20 2 20 2 18.5C2 17 3.5 12.5 11 12.5C18.5 12.5 20 17 20 18.5ZM18.5 18.4948C18.4978 18.1246 18.2693 17.0157 17.2518 15.9982C16.2734 15.0198 14.4336 14 11 14C7.56632 14 5.72653 15.0198 4.74815 15.9982C3.73063 17.0157 3.50214 18.1246 3.5 18.4948H18.5Z" fill="#63697D"/>
</svg>
