<svg width="21" height="21" viewBox="0 0 21 21" fill="none" xmlns="http://www.w3.org/2000/svg">
<path d="M10.4997 6.48295C8.28133 6.48295 6.48302 8.28125 6.48302 10.4996C6.48302 12.7179 8.28133 14.5162 10.4997 14.5162C12.718 14.5162 14.5163 12.7179 14.5163 10.4996C14.5163 8.28125 12.718 6.48295 10.4997 6.48295ZM7.72052 10.4996C7.72052 8.96471 8.96478 7.72045 10.4997 7.72045C12.0345 7.72045 13.2788 8.96471 13.2788 10.4996C13.2788 12.0344 12.0345 13.2787 10.4997 13.2787C8.96478 13.2787 7.72052 12.0344 7.72052 10.4996Z" fill="#3A4DDD"/>
<path d="M12.7227 2.26204C12.0694 0.0454661 8.9298 0.0454677 8.27648 2.26204L8.16033 2.65608C7.96578 3.31616 7.21183 3.62845 6.60751 3.29928L6.24676 3.10278C4.21744 1.9974 1.9974 4.21744 3.10278 6.24676L3.29928 6.60751C3.62845 7.21183 3.31616 7.96578 2.65608 8.16033L2.26204 8.27648C0.0454661 8.92981 0.0454677 12.0694 2.26204 12.7227L2.65608 12.8389C3.31616 13.0334 3.62845 13.7874 3.29928 14.3917L3.10278 14.7525C1.9974 16.7818 4.21743 19.0018 6.24676 17.8964L6.60751 17.6999C7.21183 17.3708 7.96578 17.6831 8.16033 18.3431L8.27648 18.7372C8.9298 20.9538 12.0694 20.9537 12.7227 18.7372L12.8389 18.3431C13.0334 17.6831 13.7874 17.3708 14.3917 17.6999L14.7525 17.8964C16.7818 19.0018 19.0018 16.7818 17.8964 14.7525L17.6999 14.3917C17.3708 13.7874 17.6831 13.0334 18.3431 12.8389L18.7372 12.7227C20.9538 12.0694 20.9537 8.9298 18.7372 8.27648L18.3431 8.16033C17.6831 7.96578 17.3708 7.21183 17.6999 6.60751L17.8964 6.24676C19.0018 4.21743 16.7818 1.9974 14.7525 3.10278L14.3917 3.29928C13.7874 3.62845 13.0334 3.31616 12.8389 2.65608L12.7227 2.26204ZM9.46349 2.61191C9.76798 1.57884 11.2312 1.57884 11.5357 2.61191L11.6519 3.00595C12.0693 4.42224 13.687 5.09231 14.9837 4.38602L15.3444 4.18952C16.2902 3.67434 17.3249 4.70902 16.8097 5.65481L16.6132 6.01556C15.9069 7.31221 16.577 8.9299 17.9933 9.34735L18.3873 9.46349C19.4204 9.76798 19.4204 11.2312 18.3873 11.5357L17.9933 11.6519C16.577 12.0693 15.9069 13.687 16.6132 14.9837L16.8097 15.3444C17.3249 16.2902 16.2902 17.3249 15.3444 16.8097L14.9837 16.6132C13.687 15.9069 12.0693 16.577 11.6519 17.9933L11.5357 18.3873C11.2312 19.4204 9.76798 19.4204 9.46349 18.3873L9.34735 17.9933C8.9299 16.577 7.31221 15.9069 6.01556 16.6132L5.65481 16.8097C4.70902 17.3249 3.67434 16.2902 4.18952 15.3444L4.38602 14.9837C5.09231 13.687 4.42224 12.0693 3.00595 11.6519L2.61191 11.5357C1.57884 11.2312 1.57884 9.76798 2.61191 9.46349L3.00595 9.34735C4.42224 8.9299 5.09231 7.31221 4.38602 6.01556L4.18952 5.65481C3.67434 4.70902 4.70902 3.67434 5.65481 4.18952L6.01556 4.38602C7.31221 5.09231 8.9299 4.42224 9.34735 3.00595L9.46349 2.61191Z" fill="#3A4DDD"/>
</svg>
