<svg width="9" height="8" viewBox="0 0 9 8" fill="none" xmlns="http://www.w3.org/2000/svg">
<path fill-rule="evenodd" clip-rule="evenodd" d="M8.34678 0.653218C8.55107 0.857508 8.55107 1.18873 8.34678 1.39302L4.16184 6.6242C3.95755 6.82849 3.62633 6.82849 3.42204 6.6242L0.653225 3.85539C0.448935 3.6511 0.448935 3.31988 0.653225 3.11559C0.857516 2.9113 1.18874 2.9113 1.39303 3.11559L3.79194 5.5145L7.60698 0.653218C7.81127 0.448927 8.14249 0.448927 8.34678 0.653218Z" fill="black"/>
<path fill-rule="evenodd" clip-rule="evenodd" d="M8.34678 0.653218C8.55107 0.857508 8.55107 1.18873 8.34678 1.39302L4.16184 6.6242C3.95755 6.82849 3.62633 6.82849 3.42204 6.6242L0.653225 3.85539C0.448935 3.6511 0.448935 3.31988 0.653225 3.11559C0.857516 2.9113 1.18874 2.9113 1.39303 3.11559L3.79194 5.5145L7.60698 0.653218C7.81127 0.448927 8.14249 0.448927 8.34678 0.653218Z" fill="#63697D" stroke="#63697D" stroke-width="0.25" stroke-linecap="round" stroke-linejoin="round"/>
</svg>
