<svg width="14" height="14" viewBox="0 0 14 14" fill="none" xmlns="http://www.w3.org/2000/svg">
<path d="M2.8547 12.5329C2.79187 12.8911 3.14529 13.1714 3.45741 13.011L7.00255 11.1889L10.5477 13.011C10.8598 13.1714 11.2132 12.8911 11.1504 12.5329L10.4802 8.71291L13.3252 6.00178C13.5911 5.74841 13.4534 5.28515 13.0973 5.23455L9.1408 4.6725L7.3767 1.17799C7.21779 0.863197 6.78732 0.863197 6.62841 1.17799L4.86431 4.6725L0.907847 5.23455C0.551663 5.28515 0.414032 5.74841 0.679909 6.00178L3.52487 8.71291L2.8547 12.5329ZM6.81611 10.2971L3.83916 11.8272L4.39991 8.63089C4.42634 8.48022 4.37664 8.32593 4.26846 8.22284L1.92063 5.98545L5.19364 5.52049C5.32894 5.50127 5.44708 5.41485 5.51091 5.28842L7.00255 2.33361L8.4942 5.28842C8.55802 5.41485 8.67616 5.50127 8.81147 5.52049L12.0845 5.98545L9.73665 8.22284C9.62847 8.32593 9.57877 8.48022 9.6052 8.63089L10.1659 11.8272L7.18899 10.2971C7.0714 10.2366 6.93371 10.2366 6.81611 10.2971Z" fill="white"/>
</svg>
