<svg width="22" height="22" viewBox="0 0 22 22" fill="none" xmlns="http://www.w3.org/2000/svg">
<path d="M1.43918 6.81505L1.38949 5.65835C1.38949 4.19019 2.51421 3 3.90163 3H8.51336C9.17962 3 9.81859 3.28008 10.2897 3.77861L11.3303 4.87974C11.8014 5.37828 12.4404 5.65835 13.1066 5.65835H18.1077C19.5849 5.65835 20.7432 7.00061 20.6095 8.55738L19.8102 17.8616C19.6925 19.2309 18.6076 20.2793 17.3083 20.2793H4.31165C3.01237 20.2793 1.92747 19.2309 1.80984 17.8616L1.01052 8.55739C0.955185 7.91326 1.12105 7.30585 1.43918 6.81505ZM3.51234 6.98753C2.77373 6.98753 2.19456 7.65866 2.26143 8.43705L3.06074 17.7413C3.11956 18.4259 3.66201 18.9501 4.31165 18.9501H17.3083C17.958 18.9501 18.5004 18.4259 18.5593 17.7413L19.3586 8.43705C19.4254 7.65866 18.8463 6.98753 18.1077 6.98753H3.51234ZM9.40154 4.71848C9.16598 4.46922 8.84649 4.32918 8.51336 4.32918H3.90163C3.21584 4.32918 2.65842 4.91076 2.64578 5.63327L2.65369 5.81738C2.92098 5.71459 3.20998 5.65835 3.51234 5.65835H10.2897L9.40154 4.71848Z" fill="#63697D"/>
</svg>
