<svg width="22" height="22" viewBox="0 0 22 22" fill="none" xmlns="http://www.w3.org/2000/svg">
<path d="M7 6.5C6.63181 6.5 6.33333 6.75184 6.33333 7.0625C6.33333 7.37316 6.63181 7.625 7 7.625H15C15.3682 7.625 15.6667 7.37316 15.6667 7.0625C15.6667 6.75184 15.3682 6.5 15 6.5H7Z" fill="#63697D"/>
<path d="M6.33333 9.3125C6.33333 9.00184 6.63181 8.75 7 8.75H15C15.3682 8.75 15.6667 9.00184 15.6667 9.3125C15.6667 9.62316 15.3682 9.875 15 9.875H7C6.63181 9.875 6.33333 9.62316 6.33333 9.3125Z" fill="#63697D"/>
<path d="M7 11C6.63181 11 6.33333 11.2518 6.33333 11.5625C6.33333 11.8732 6.63181 12.125 7 12.125H15C15.3682 12.125 15.6667 11.8732 15.6667 11.5625C15.6667 11.2518 15.3682 11 15 11H7Z" fill="#63697D"/>
<path d="M7 13.25C6.63181 13.25 6.33333 13.5018 6.33333 13.8125C6.33333 14.1232 6.63181 14.375 7 14.375H11C11.3682 14.375 11.6667 14.1232 11.6667 13.8125C11.6667 13.5018 11.3682 13.25 11 13.25H7Z" fill="#63697D"/>
<path d="M3 4.25C3 3.00736 4.19391 2 5.66667 2H16.3333C17.8061 2 19 3.00736 19 4.25V17.75C19 18.9926 17.8061 20 16.3333 20H5.66667C4.19391 20 3 18.9926 3 17.75V4.25ZM16.3333 3.125H5.66667C4.93029 3.125 4.33333 3.62868 4.33333 4.25V17.75C4.33333 18.3713 4.93029 18.875 5.66667 18.875H16.3333C17.0697 18.875 17.6667 18.3713 17.6667 17.75V4.25C17.6667 3.62868 17.0697 3.125 16.3333 3.125Z" fill="#63697D"/>
</svg>
