<svg width="22" height="22" viewBox="0 0 22 22" fill="none" xmlns="http://www.w3.org/2000/svg">
<path d="M11.9723 2.06264C11.4353 1.52567 10.5647 1.52567 10.0277 2.06264L0.888864 11.2015C0.620379 11.47 0.620379 11.9053 0.888864 12.1738C1.15735 12.4423 1.59265 12.4423 1.86114 12.1738L2.75 11.2849V18.5626C2.75 19.7017 3.67341 20.6251 4.8125 20.6251H17.1875C18.3266 20.6251 19.25 19.7017 19.25 18.5626V11.2849L20.1389 12.1738C20.4074 12.4423 20.8426 12.4423 21.1111 12.1738C21.3796 11.9053 21.3796 11.47 21.1111 11.2015L17.875 7.96537V3.43764C17.875 3.05794 17.5672 2.75014 17.1875 2.75014H15.8125C15.4328 2.75014 15.125 3.05794 15.125 3.43764V5.21537L11.9723 2.06264ZM17.875 9.90991V18.5626C17.875 18.9423 17.5672 19.2501 17.1875 19.2501H4.8125C4.4328 19.2501 4.125 18.9423 4.125 18.5626V9.90991L11 3.03491L17.875 9.90991Z" fill="#5968D4"/>
</svg>
