<svg width="34" height="29" viewBox="0 0 34 29" fill="none" xmlns="http://www.w3.org/2000/svg">
<path d="M12.5 16.7105H27.5L22.325 10.0789L18.875 14.5L16.55 11.5526L12.5 16.7105ZM3.5 28.5C2.675 28.5 1.969 28.2116 1.382 27.6349C0.795 27.0582 0.501 26.3641 0.5 25.5526V6.39474H3.5V25.5526H29V28.5H3.5ZM9.5 22.6053C8.675 22.6053 7.969 22.3169 7.382 21.7402C6.795 21.1635 6.501 20.4694 6.5 19.6579V3.44737C6.5 2.63684 6.794 1.94323 7.382 1.36653C7.97 0.789825 8.676 0.500982 9.5 0.5H17L20 3.44737H30.5C31.325 3.44737 32.0315 3.73621 32.6195 4.31389C33.2075 4.89158 33.501 5.58519 33.5 6.39474V19.6579C33.5 20.4684 33.2065 21.1625 32.6195 21.7402C32.0325 22.3179 31.326 22.6062 30.5 22.6053H9.5ZM9.5 19.6579H30.5V6.39474H18.7625L15.7625 3.44737H9.5V19.6579Z" fill="#3A4DDD"/>
</svg>
