<svg width="24" height="25" viewBox="0 0 24 25" fill="none" xmlns="http://www.w3.org/2000/svg">
<path d="M8 16.5V12.5C8 11.4391 8.42143 10.4217 9.17157 9.67157C9.92172 8.92143 10.9391 8.5 12 8.5C13.0609 8.5 14.0783 8.92143 14.8284 9.67157C15.5786 10.4217 16 11.4391 16 12.5V16.5M3 12.5H4M12 3.5V4.5M20 12.5H21M5.6 6.1L6.3 6.8M18.4 6.1L17.7 6.8M6 17.5C6 17.2348 6.10536 16.9804 6.29289 16.7929C6.48043 16.6054 6.73478 16.5 7 16.5H17C17.2652 16.5 17.5196 16.6054 17.7071 16.7929C17.8946 16.9804 18 17.2348 18 17.5V19.5C18 19.7652 17.8946 20.0196 17.7071 20.2071C17.5196 20.3946 17.2652 20.5 17 20.5H7C6.73478 20.5 6.48043 20.3946 6.29289 20.2071C6.10536 20.0196 6 19.7652 6 19.5V17.5Z" stroke="white" stroke-width="2" stroke-linecap="round" stroke-linejoin="round"/>
</svg>
