<svg width="22" height="22" viewBox="0 0 22 22" fill="none" xmlns="http://www.w3.org/2000/svg">
<path d="M14.4375 17.875H2.75C2.38533 17.875 2.03559 17.7301 1.77773 17.4723C1.51987 17.2144 1.375 16.8647 1.375 16.5V5.5C1.375 5.13533 1.51987 4.78559 1.77773 4.52773C2.03559 4.26987 2.38533 4.125 2.75 4.125H14.4375C14.8022 4.125 15.1519 4.26987 15.4098 4.52773C15.6676 4.78559 15.8125 5.13533 15.8125 5.5V8.29125L19.5387 5.63062C19.6414 5.55757 19.7621 5.5141 19.8877 5.50498C20.0133 5.49585 20.1391 5.52141 20.2511 5.57888C20.3632 5.63634 20.4574 5.7235 20.5233 5.83083C20.5892 5.93816 20.6244 6.06154 20.625 6.1875V15.8125C20.6244 15.9385 20.5892 16.0618 20.5233 16.1692C20.4574 16.2765 20.3632 16.3637 20.2511 16.4211C20.1391 16.4786 20.0133 16.5042 19.8877 16.495C19.7621 16.4859 19.6414 16.4424 19.5387 16.3694L15.8125 13.7088V16.5C15.8125 16.8647 15.6676 17.2144 15.4098 17.4723C15.1519 17.7301 14.8022 17.875 14.4375 17.875ZM2.75 5.5V16.5H14.4375V12.375C14.4381 12.249 14.4733 12.1257 14.5392 12.0183C14.6051 11.911 14.6993 11.8238 14.8114 11.7664C14.9234 11.7089 15.0492 11.6833 15.1748 11.6925C15.3004 11.7016 15.4211 11.7451 15.5238 11.8181L19.25 14.4787V7.52125L15.5238 10.1819C15.4211 10.2549 15.3004 10.2984 15.1748 10.3075C15.0492 10.3167 14.9234 10.2911 14.8114 10.2336C14.6993 10.1762 14.6051 10.089 14.5392 9.98167C14.4733 9.87434 14.4381 9.75096 14.4375 9.625V5.5H2.75Z" fill="#474F69"/>
</svg>
