<svg width="20" height="21" viewBox="0 0 20 21" fill="none" xmlns="http://www.w3.org/2000/svg">
<path d="M3.33341 17.9998C2.87508 17.9998 2.48286 17.8368 2.15675 17.5107C1.83064 17.1846 1.6673 16.7921 1.66675 16.3332V7.1665C1.66675 6.70817 1.83008 6.31595 2.15675 5.98984C2.48341 5.66373 2.87564 5.50039 3.33341 5.49984H6.66675V3.83317C6.66675 3.37484 6.83008 2.98262 7.15675 2.6565C7.48341 2.33039 7.87564 2.16706 8.33341 2.1665H11.6667C12.1251 2.1665 12.5176 2.32984 12.8442 2.6565C13.1709 2.98317 13.334 3.37539 13.3334 3.83317V5.49984H16.6667C17.1251 5.49984 17.5176 5.66317 17.8442 5.98984C18.1709 6.3165 18.334 6.70873 18.3334 7.1665V16.3332C18.3334 16.7915 18.1704 17.184 17.8442 17.5107C17.5181 17.8373 17.1256 18.0004 16.6667 17.9998H3.33341ZM8.33341 5.49984H11.6667V3.83317H8.33341V5.49984Z" fill="#474F69"/>
</svg>
