<svg width="15" height="15" viewBox="0 0 15 15" fill="none" xmlns="http://www.w3.org/2000/svg">
<path d="M13.125 0H1.875C0.839466 0 0 0.839466 0 1.875V13.125C0 14.1605 0.839466 15 1.875 15H13.125C14.1605 15 15 14.1605 15 13.125V1.875C15 0.839466 14.1605 0 13.125 0ZM0.9375 3.61607C0.9375 3.17227 1.35723 2.8125 1.875 2.8125H13.125C13.6428 2.8125 14.0625 3.17227 14.0625 3.61607V13.2589C14.0625 13.7027 13.6428 14.0625 13.125 14.0625H1.875C1.35723 14.0625 0.9375 13.7027 0.9375 13.2589V3.61607Z" fill="#3A4DDD"/>
<path d="M6.09375 6.5625C6.61152 6.5625 7.03125 6.14277 7.03125 5.625C7.03125 5.10723 6.61152 4.6875 6.09375 4.6875C5.57598 4.6875 5.15625 5.10723 5.15625 5.625C5.15625 6.14277 5.57598 6.5625 6.09375 6.5625Z" fill="#3A4DDD"/>
<path d="M8.90625 6.5625C9.42402 6.5625 9.84375 6.14277 9.84375 5.625C9.84375 5.10723 9.42402 4.6875 8.90625 4.6875C8.38848 4.6875 7.96875 5.10723 7.96875 5.625C7.96875 6.14277 8.38848 6.5625 8.90625 6.5625Z" fill="#3A4DDD"/>
<path d="M11.7188 6.5625C12.2365 6.5625 12.6562 6.14277 12.6562 5.625C12.6562 5.10723 12.2365 4.6875 11.7188 4.6875C11.201 4.6875 10.7812 5.10723 10.7812 5.625C10.7812 6.14277 11.201 6.5625 11.7188 6.5625Z" fill="#3A4DDD"/>
<path d="M3.28125 9.375C3.79902 9.375 4.21875 8.95527 4.21875 8.4375C4.21875 7.91973 3.79902 7.5 3.28125 7.5C2.76348 7.5 2.34375 7.91973 2.34375 8.4375C2.34375 8.95527 2.76348 9.375 3.28125 9.375Z" fill="#3A4DDD"/>
<path d="M6.09375 9.375C6.61152 9.375 7.03125 8.95527 7.03125 8.4375C7.03125 7.91973 6.61152 7.5 6.09375 7.5C5.57598 7.5 5.15625 7.91973 5.15625 8.4375C5.15625 8.95527 5.57598 9.375 6.09375 9.375Z" fill="#3A4DDD"/>
<path d="M8.90625 9.375C9.42402 9.375 9.84375 8.95527 9.84375 8.4375C9.84375 7.91973 9.42402 7.5 8.90625 7.5C8.38848 7.5 7.96875 7.91973 7.96875 8.4375C7.96875 8.95527 8.38848 9.375 8.90625 9.375Z" fill="#3A4DDD"/>
<path d="M11.7188 9.375C12.2365 9.375 12.6562 8.95527 12.6562 8.4375C12.6562 7.91973 12.2365 7.5 11.7188 7.5C11.201 7.5 10.7812 7.91973 10.7812 8.4375C10.7812 8.95527 11.201 9.375 11.7188 9.375Z" fill="#3A4DDD"/>
<path d="M3.28125 12.1875C3.79902 12.1875 4.21875 11.7678 4.21875 11.25C4.21875 10.7322 3.79902 10.3125 3.28125 10.3125C2.76348 10.3125 2.34375 10.7322 2.34375 11.25C2.34375 11.7678 2.76348 12.1875 3.28125 12.1875Z" fill="#3A4DDD"/>
<path d="M6.09375 12.1875C6.61152 12.1875 7.03125 11.7678 7.03125 11.25C7.03125 10.7322 6.61152 10.3125 6.09375 10.3125C5.57598 10.3125 5.15625 10.7322 5.15625 11.25C5.15625 11.7678 5.57598 12.1875 6.09375 12.1875Z" fill="#3A4DDD"/>
<path d="M8.90625 12.1875C9.42402 12.1875 9.84375 11.7678 9.84375 11.25C9.84375 10.7322 9.42402 10.3125 8.90625 10.3125C8.38848 10.3125 7.96875 10.7322 7.96875 11.25C7.96875 11.7678 8.38848 12.1875 8.90625 12.1875Z" fill="#3A4DDD"/>
</svg>
